<svg width="960" height="960" viewBox="0 0 960 960" fill="none" xmlns="http://www.w3.org/2000/svg">
<g clip-path="url(#clip0_38_4078)">
<path fill-rule="evenodd" clip-rule="evenodd" d="M480.541 722.403L480.667 712.459L481.268 712.473C497.259 711.509 550.246 707.515 592.884 704.135L592.772 702.808C589.853 693.549 594.406 683.311 601.333 676.524C607.214 670.762 614.596 666.891 621.922 663.051C623.224 662.368 624.525 661.686 625.815 660.994C636.708 655.137 647.126 648.436 656.973 640.953C666.643 633.615 675.798 625.622 684.373 617.03C714.399 586.989 737.933 549.91 755.139 510.907C782.288 449.359 795.235 382.631 807.176 316.431C809.621 302.884 811.002 286.419 800.221 277.872C794.117 273.025 785.752 272.341 777.959 272.299C776.283 272.285 774.607 272.299 772.931 272.327C754.805 272.64 736.791 275.239 719.316 280.064C714.846 281.2 710.506 282.801 706.37 284.841C702.943 286.543 699.908 288.94 697.459 291.879C692.027 298.597 690.923 307.731 690.141 316.348C689.54 322.86 688.993 329.383 688.445 335.908C686.256 361.984 684.065 388.083 678.466 413.62C676.05 424.812 672.839 435.817 668.857 446.552C662.712 462.978 654.528 478.548 643.719 492.178C641.377 495.153 638.9 498.03 636.289 500.809C603.427 535.78 553.61 550.263 505.666 552.022L505.219 551.799H505.205C504.555 553.308 503.577 554.653 502.342 555.737C498.92 558.684 493.99 558.824 489.479 558.81C459.828 558.755 430.169 558.695 400.502 558.628C395.181 558.628 389.735 558.6 384.707 556.855C380.597 555.558 377.102 552.807 374.875 549.117L374.554 549.317C312.894 557.679 255.732 588.655 214.462 635.217C193.444 658.918 176.391 687.59 173.221 719.111C172.662 724.658 172.606 730.243 173.053 735.8C173.815 745.765 176.168 755.544 180.022 764.765C186.307 779.733 196.656 792.707 210.747 800.765C235.313 814.801 265.619 812.05 293.733 808.88C347.018 802.861 400.307 796.841 453.601 790.822C460.584 790.04 468.111 789.006 473.195 784.16C476.533 780.962 478.236 776.73 479.102 772.149C479.785 768.122 480.108 764.042 480.066 759.957C480.229 747.434 480.387 734.916 480.541 722.403ZM791.785 318.167C791.854 317.012 790.974 316.019 789.82 315.95C788.665 315.88 787.672 316.76 787.603 317.915C782.339 405.458 753.785 490.005 704.893 562.812C704.248 563.773 704.503 565.074 705.464 565.719C706.424 566.364 707.726 566.109 708.371 565.148C757.68 491.721 786.477 406.454 791.785 318.167Z" fill="url(#paint0_linear_38_4078)"/>
<path fill-rule="evenodd" clip-rule="evenodd" d="M505.666 552.019C553.61 550.259 603.427 535.776 636.289 500.806C638.895 498.026 641.368 495.149 643.707 492.175L643.47 491.993C640.52 455.32 636.978 418.675 633.441 382.068C629.827 344.678 626.218 307.329 623.247 270.033C620.748 264.237 615.161 258.469 609.575 258.651C571.699 259.975 543.935 261.444 512.512 265.075L511.412 265.243C511.789 267.407 512.013 269.614 512.181 271.793C512.319 273.672 512.413 275.559 512.507 277.447C512.791 283.151 513.075 288.859 514.597 294.348C515.168 291.989 516.131 289.724 517.411 287.657C516.562 287.444 515.93 286.723 515.837 285.844L514.037 268.751C513.916 267.601 514.75 266.57 515.901 266.448C517.052 266.327 518.083 267.162 518.204 268.312L519.431 279.966C522.49 276.753 526.501 274.516 530.749 273.392C536.828 271.784 543.612 272.398 549.083 275.92C554.554 279.443 557.92 285.365 558.971 291.565C559.862 296.817 559.119 302.428 556.437 307.139C559.92 308.475 563.035 310.656 565.489 313.506C568.586 317.102 570.474 321.579 570.888 326.306C571.302 331.032 570.221 335.77 567.797 339.849C565.797 343.214 562.967 345.991 559.594 347.925C564.857 356.164 568.523 366.028 567.295 376.056C566.082 385.96 559.016 395.789 549.112 398.289C550.01 400.589 550.467 403.046 550.452 405.531C550.431 408.991 549.494 412.383 547.737 415.363C545.98 418.343 543.465 420.805 540.448 422.498C538.117 423.807 535.551 424.62 532.909 424.898C533.389 429.737 533.621 435.086 531.666 439.997C530.489 442.953 528.312 445.617 525.642 447.352C523.831 448.527 521.723 449.315 519.509 449.413C519.822 451.656 519.731 453.945 519.229 456.171C518.5 459.405 516.931 462.39 514.68 464.824C512.43 467.259 509.577 469.057 506.41 470.037C504.006 470.781 501.486 471.034 498.998 470.791C498.146 474.625 494.936 477.603 491.864 479.213C489.984 480.199 488.011 480.871 486.172 481.469C485.961 481.538 485.752 481.605 485.545 481.672L485.503 481.686C483.874 482.213 482.367 482.7 480.924 483.34L480.923 483.34C475.502 485.743 472.407 489.956 470.894 495.376C469.357 500.881 469.471 507.606 470.6 514.752C470.78 515.895 470 516.968 468.857 517.148C467.714 517.329 466.642 516.548 466.461 515.406C465.29 507.987 465.091 500.581 466.858 494.249C468.65 487.832 472.477 482.501 479.225 479.51C480.884 478.774 482.614 478.216 484.221 477.697L484.222 477.696C484.442 477.625 484.66 477.555 484.875 477.485C486.709 476.888 488.382 476.308 489.919 475.502C493.028 473.873 495.183 471.13 495.016 468.498C494.974 467.839 495.246 467.198 495.749 466.77C496.252 466.342 496.928 466.176 497.572 466.323C500.087 466.897 502.707 466.797 505.171 466.034C507.634 465.272 509.853 463.873 511.604 461.98C513.354 460.086 514.574 457.765 515.141 455.249C515.709 452.733 515.602 450.113 514.834 447.651C514.605 446.919 514.795 446.12 515.329 445.569C515.863 445.018 516.656 444.803 517.395 445.009C519.333 445.548 521.43 445.091 523.36 443.837C525.299 442.578 526.915 440.603 527.773 438.447C529.584 433.897 529.118 428.697 528.51 423.136C528.445 422.539 528.639 421.943 529.043 421.498C529.125 421.409 529.213 421.328 529.307 421.255C528.172 421.447 527.019 421.54 525.86 421.531C527.617 423.838 528.634 426.624 528.776 429.521C528.919 432.417 528.179 435.289 526.656 437.758C525.133 440.226 522.898 442.174 520.245 443.346C517.592 444.519 514.646 444.859 511.796 444.323C516.294 452.801 508.361 464.801 498.808 464.001H496.769C494.183 468.618 490.298 472.373 485.596 474.801C483.38 475.87 480.965 476.589 478.561 477.303C474.342 478.558 470.159 479.801 467.161 482.915C462.86 487.37 462.454 494.256 463.111 500.415C463.25 501.72 463.425 503.031 463.6 504.343C464.251 509.224 464.906 514.13 463.74 518.864L463.754 519.296C472.678 518.938 481.616 519.162 490.512 519.967C495.652 520.474 501.224 521.405 504.646 525.274C508.78 529.966 508.165 537.048 507.313 543.248C507.026 546.182 506.321 549.06 505.219 551.795L505.666 552.019ZM531.297 420.81C533.785 420.739 536.221 420.066 538.397 418.845C540.769 417.513 542.746 415.578 544.128 413.235C545.509 410.892 546.245 408.225 546.262 405.506C546.272 403.992 546.058 402.492 545.633 401.053C545.652 401.491 545.657 401.93 545.646 402.369C545.565 405.779 544.597 409.11 542.836 412.032C541.076 414.954 538.584 417.367 535.607 419.032C534.241 419.797 532.793 420.392 531.297 420.81ZM544.503 395.286C544.845 394.916 545.314 394.677 545.828 394.625C554.765 393.714 561.979 384.989 563.136 375.546C564.291 366.121 560.477 356.496 554.819 348.309C554.463 347.794 554.356 347.146 554.528 346.544C554.699 345.942 555.131 345.448 555.705 345.197C559.25 343.652 562.22 341.033 564.195 337.708C566.17 334.384 567.052 330.523 566.714 326.671C566.377 322.819 564.838 319.171 562.315 316.241C560.486 314.117 558.207 312.448 555.66 311.346C560.575 314.508 564.154 319.841 564.611 325.701C565.337 335.016 558.088 344.262 548.871 345.77C552.828 348.548 555.959 352.346 557.931 356.76C559.903 361.174 560.643 366.041 560.071 370.842C559.5 375.643 557.639 380.199 554.686 384.027C551.732 387.856 547.797 390.812 543.299 392.584C543.769 393.456 544.171 394.359 544.503 395.286ZM551.268 309.241C551.229 309.162 551.194 309.08 551.165 308.995C550.93 308.323 551.053 307.577 551.491 307.016C554.654 302.963 555.729 297.505 554.84 292.265C553.951 287.026 551.137 282.227 546.814 279.443C542.492 276.66 536.958 276.084 531.821 277.442C531.657 277.486 531.494 277.531 531.332 277.578C539.214 275.981 548.087 279.757 551.79 286.89C555.561 294.155 553.038 304.263 545.938 308.355C547.759 308.364 549.554 308.676 551.268 309.241Z" fill="#171717"/>
<path d="M625.815 661C636.707 655.142 647.125 648.441 656.973 640.959L657.073 641.084C657.073 644.115 657.017 645.511 657.073 648.305C657.366 663.667 659.461 678.22 658.473 691.599C658.012 697.828 648.696 698.582 643.11 699.978C632.873 700.914 614.173 702.45 592.889 704.14L592.777 702.814C589.858 693.554 594.411 683.314 601.338 676.53C608.265 669.746 617.268 665.575 625.815 661Z" fill="#171717"/>
<path d="M496.77 464.005C497.661 462.486 498.441 460.903 499.103 459.271C501.742 452.777 502.664 445.71 503.278 438.727C505.736 411.396 504.033 383.869 501.826 356.51L500.834 356.594L439.859 351.482C428.98 350.56 417.206 349.862 407.989 355.728C401.089 360.141 396.689 367.752 394.582 375.671C392.475 383.59 392.417 391.899 392.515 400.097C392.92 434.23 395.936 468.279 399.4 502.258L399.316 502.272C395.304 503.298 391.073 503.061 387.2 501.592C383.328 500.124 380.003 497.497 377.679 494.068C375.356 490.64 374.147 486.579 374.217 482.438C374.288 478.297 375.635 474.279 378.074 470.932C374.531 471.926 370.745 471.576 367.445 469.948C364.144 468.321 361.562 465.531 360.193 462.115C358.825 458.699 358.767 454.898 360.031 451.442C361.295 447.986 363.792 445.119 367.041 443.392C362.521 443.257 358.168 441.648 354.646 438.812C351.124 435.975 348.625 432.066 347.529 427.678C346.434 423.291 346.801 418.665 348.576 414.506C350.351 410.346 353.436 406.881 357.362 404.636C353.466 402.875 350.166 400.019 347.864 396.416C345.563 392.812 344.36 388.617 344.401 384.342C344.443 380.066 345.728 375.895 348.098 372.337C350.469 368.779 353.824 365.987 357.754 364.303C355.142 358.003 353.187 351.231 353.801 344.443C354.43 337.656 358.047 330.843 364.164 327.866C369.275 325.38 376.064 326.366 379.903 330.324C380.453 331.29 381.094 332.202 381.817 333.047C381.324 332.045 380.679 331.127 379.903 330.324C374.778 321.624 376.426 309.179 384.135 302.49C392.71 295.074 407.221 296.037 414.72 304.543C413.831 301.098 414.108 297.455 415.507 294.183C416.906 290.912 419.349 288.196 422.454 286.459C425.56 284.722 429.153 284.062 432.673 284.582C436.193 285.102 439.442 286.773 441.912 289.334C443.154 285.846 445.326 282.764 448.194 280.423C451.063 278.081 454.517 276.57 458.183 276.052C461.849 275.534 465.587 276.029 468.992 277.484C472.396 278.939 475.338 281.298 477.497 284.306C475.436 279.694 474.316 274.717 474.203 269.666C474.09 264.616 474.987 259.593 476.841 254.894C478.559 250.606 481.282 246.472 485.416 244.405C492.189 241.012 500.862 244.433 505.527 250.411C508.837 254.67 510.527 259.866 511.421 265.242C511.798 267.407 512.021 269.614 512.189 271.792C512.747 279.348 512.58 287.043 514.605 294.347C516.532 286.387 522.928 279.488 530.905 277.672C538.882 275.856 548.027 279.613 551.798 286.89C555.569 294.167 553.041 304.263 545.946 308.355C555.276 308.397 563.892 316.4 564.619 325.701C565.346 335.002 558.097 344.262 548.879 345.77C552.836 348.548 555.967 352.346 557.939 356.76C559.912 361.175 560.651 366.041 560.08 370.842C559.508 375.643 557.647 380.199 554.694 384.028C551.741 387.856 547.806 390.813 543.307 392.584C544.928 395.587 545.738 398.96 545.657 402.372C545.576 405.783 544.607 409.114 542.846 412.037C541.085 414.96 538.593 417.373 535.614 419.039C532.636 420.704 529.275 421.565 525.863 421.535C527.62 423.842 528.637 426.628 528.78 429.524C528.922 432.421 528.183 435.293 526.66 437.761C525.137 440.229 522.902 442.178 520.249 443.35C517.596 444.522 514.65 444.863 511.8 444.327C516.3 452.805 508.364 464.801 498.811 464.005H496.77Z" fill="#171717"/>
<path d="M423.839 456.408C421.306 457.172 419.088 458.737 417.518 460.866C415.947 462.996 415.108 465.577 415.125 468.223L414.678 468.67C412.61 466.602 411.42 463.815 411.354 460.891C411.44 458.071 412.536 455.375 414.443 453.296C416.351 451.217 418.942 449.893 421.744 449.565C422.056 451.938 422.834 454.226 424.035 456.296L423.839 456.408Z" fill="#171717"/>
<path d="M403.31 524.157C423.17 522.704 443.56 519.939 463.755 519.296C472.679 518.938 481.617 519.163 490.513 519.967C495.653 520.467 501.225 521.405 504.647 525.274C508.781 529.966 508.166 537.047 507.314 543.248C507.027 546.182 506.322 549.06 505.22 551.795H505.206C504.555 553.304 503.577 554.649 502.343 555.733C498.921 558.68 493.991 558.82 489.48 558.806C459.813 558.75 430.154 558.689 400.503 558.624C395.182 558.624 389.736 558.596 384.708 556.851C380.598 555.554 377.103 552.803 374.876 549.114C374.352 548.193 373.953 547.207 373.689 546.181C371.943 539.338 376.621 532.159 382.789 528.709C388.489 525.525 395.163 524.785 401.689 524.282L403.31 524.157Z" fill="url(#paint1_linear_38_4078)"/>
<path d="M199 273.482C199.09 274.482 198.983 275.49 198.684 276.448C198.384 277.406 197.899 278.296 197.256 279.067C196.613 279.838 195.824 280.475 194.935 280.94C194.045 281.406 193.073 281.692 192.073 281.782L142.673 286.182C140.656 286.361 138.651 285.732 137.098 284.433C135.546 283.134 134.572 281.271 134.392 279.255L132.392 256.91C132.214 254.891 132.845 252.885 134.147 251.332C135.449 249.778 137.314 248.806 139.333 248.628L188.716 244.215C190.736 244.038 192.744 244.669 194.3 245.97C195.856 247.271 196.832 249.136 197.016 251.156L199 273.482ZM159.965 275.675L176.682 260.775L156.111 254.533L159.965 275.675Z" fill="url(#paint2_linear_38_4078)"/>
<path d="M485.053 369.889C477.841 368.545 470.549 367.672 463.224 367.277C458.532 367.026 452.959 367.417 450.473 371.397C448.965 373.827 449.105 376.886 449.328 379.735C450.8 398.617 453.86 417.342 458.476 435.71C457.138 436.906 455.449 437.637 453.662 437.793C451.874 437.949 450.084 437.522 448.56 436.576" stroke="#171717" stroke-width="4.19" stroke-linecap="round" stroke-linejoin="round"/>
<path d="M433.587 386.5C430.012 381.933 421.311 383.748 419.859 389.349" stroke="#171717" stroke-width="4.19" stroke-linecap="round" stroke-linejoin="round"/>
<path d="M479.229 388.254C476.576 384.274 469.383 385.07 467.665 389.539" stroke="#171717" stroke-width="4.19" stroke-linecap="round" stroke-linejoin="round"/>
<path d="M447.567 466.491C438.657 469.091 428.56 464.215 424.035 456.296C422.834 454.226 422.056 451.938 421.744 449.565C418.942 449.893 416.351 451.217 414.443 453.296C412.536 455.375 411.44 458.071 411.354 460.891C411.419 463.815 412.61 466.602 414.678 468.67C416.552 470.665 419.09 471.906 421.814 472.161" stroke="#171717" stroke-width="4.19" stroke-linecap="round" stroke-linejoin="round"/>
<path d="M415.124 468.223C415.107 465.577 415.946 462.996 417.517 460.866C419.088 458.737 421.306 457.173 423.839 456.408" stroke="#171717" stroke-width="4.19" stroke-linecap="round" stroke-linejoin="round"/>
<path d="M505.667 552.019C553.611 550.259 603.428 535.776 636.29 500.806C638.901 498.026 641.378 495.149 643.72 492.175C654.529 478.544 662.713 462.975 668.858 446.548C672.84 435.813 676.051 424.808 678.467 413.616C685.467 381.69 687.14 348.884 690.142 316.344C690.924 307.727 692.028 298.593 697.46 291.876C699.909 288.936 702.944 286.539 706.371 284.837C710.508 282.797 714.847 281.196 719.317 280.06C736.792 275.235 754.806 272.636 772.932 272.323C774.608 272.295 776.284 272.281 777.96 272.295C785.753 272.337 794.118 273.022 800.222 277.868C811.003 286.415 809.622 302.881 807.177 316.428C795.236 382.628 782.289 449.355 755.14 510.903C737.934 549.91 714.4 586.989 684.374 617.03C675.799 625.622 666.644 633.616 656.974 640.954C647.126 648.438 636.708 655.14 625.815 661C617.268 665.58 608.26 669.742 601.333 676.53C594.406 683.318 589.853 693.554 592.772 702.814" stroke="#171717" stroke-width="4.19" stroke-linecap="round" stroke-linejoin="round"/>
<path d="M374.555 549.309C312.895 557.675 255.733 588.651 214.463 635.209C193.445 658.909 176.392 687.582 173.222 719.103C172.663 724.65 172.607 730.235 173.054 735.792C173.816 745.757 176.169 755.536 180.023 764.757C186.308 779.729 196.657 792.703 210.748 800.757C235.314 814.793 265.62 812.042 293.734 808.872C347.014 802.852 400.303 796.833 453.602 790.814C460.585 790.032 468.112 788.998 473.196 784.152C476.534 780.952 478.237 776.722 479.103 772.141C479.786 768.114 480.109 764.034 480.067 759.949C480.221 747.436 480.379 734.918 480.542 722.395C480.584 719.085 480.626 715.761 480.667 712.451C480.709 709.099 480.751 705.733 480.793 702.382C480.835 699.382 480.709 695.957 478.433 693.974C475.64 691.544 471.352 692.689 467.847 693.89C426.114 708.277 381.784 713.562 337.838 709.39C330.45 708.69 321.721 706.681 319.138 699.74C316.838 693.54 320.814 686.933 324.598 681.514C336.944 663.876 349.29 646.228 361.636 628.57" stroke="#171717" stroke-width="4.19" stroke-linecap="round" stroke-linejoin="round"/>
<path d="M479.3 772.191C509.48 769.538 538.4 766.691 568.514 763.351C581.293 761.926 594.169 760.418 606.334 756.251C609.334 755.218 612.814 753.262 612.674 750.092C612.521 746.643 608.331 745.134 604.923 744.562C603.094 744.24 601.25 743.947 599.407 743.668C577.209 740.272 554.703 739.34 532.3 740.888" stroke="#171717" stroke-width="4.19" stroke-linecap="round" stroke-linejoin="round"/>
<path d="M599.559 742.681C600.286 740.698 599.098 738.533 597.185 737.081C596.488 736.563 595.739 736.119 594.951 735.754C593.409 735.051 591.811 734.476 590.174 734.036C588.443 733.536 586.697 733.087 584.937 732.682C563.765 727.752 540.737 729.12 518.501 730.559" stroke="#171717" stroke-width="4.19" stroke-linecap="round" stroke-linejoin="round"/>
<path d="M585.021 732.305C573.974 713.9 498.265 722 480.765 722.4" stroke="#171717" stroke-width="4.19" stroke-linecap="round" stroke-linejoin="round"/>
<path d="M463.755 519.3C443.56 519.943 423.17 522.708 403.31 524.16L401.69 524.286C395.168 524.786 388.49 525.529 382.79 528.713C376.617 532.163 371.939 539.341 373.69 546.185C373.954 547.211 374.353 548.197 374.877 549.118C377.104 552.807 380.599 555.558 384.709 556.855C389.737 558.6 395.183 558.628 400.504 558.628C430.17 558.695 459.829 558.755 489.481 558.81C493.992 558.824 498.922 558.684 502.344 555.737C503.579 554.653 504.557 553.308 505.207 551.799H505.221C506.323 549.064 507.028 546.186 507.315 543.252C508.167 537.052 508.782 529.97 504.648 525.278C501.226 521.409 495.654 520.478 490.514 519.971C481.618 519.167 472.679 518.942 463.755 519.3Z" stroke="#171717" stroke-width="4.19" stroke-linecap="round" stroke-linejoin="round"/>
<path d="M463.741 518.863C465.221 512.858 463.769 506.573 463.112 500.414C462.455 494.255 462.861 487.37 467.162 482.914C471.869 478.026 479.494 477.747 485.598 474.8C490.299 472.372 494.184 468.617 496.77 464C497.661 462.481 498.441 460.898 499.103 459.266C501.742 452.772 502.664 445.705 503.278 438.722C505.736 411.391 504.033 383.864 501.826 356.505C501.826 356.435 501.812 356.379 501.812 356.305" stroke="#171717" stroke-width="4.19" stroke-linecap="round" stroke-linejoin="round"/>
<path d="M401.7 524.38C401.702 524.346 401.697 524.312 401.686 524.28C400.918 516.947 400.154 509.605 399.396 502.256C395.932 468.277 392.916 434.228 392.511 400.095C392.411 391.895 392.483 383.588 394.578 375.669C396.673 367.75 401.086 360.139 407.985 355.726C417.202 349.86 428.976 350.558 439.855 351.48L500.83 356.592" stroke="#171717" stroke-width="4.19" stroke-linecap="round" stroke-linejoin="round"/>
<path d="M379.899 330.324C374.774 321.624 376.422 309.179 384.131 302.49C392.706 295.074 407.217 296.037 414.716 304.543C413.827 301.098 414.104 297.455 415.503 294.183C416.902 290.912 419.345 288.196 422.451 286.459C425.556 284.722 429.149 284.062 432.669 284.582C436.189 285.102 439.438 286.773 441.908 289.334C443.15 285.846 445.323 282.764 448.191 280.423C451.059 278.081 454.513 276.57 458.179 276.052C461.846 275.534 465.583 276.029 468.988 277.484C472.393 278.939 475.334 281.298 477.493 284.306C475.432 279.694 474.312 274.717 474.199 269.666C474.087 264.616 474.984 259.593 476.837 254.894C478.555 250.606 481.278 246.472 485.412 244.405C492.185 241.012 500.858 244.433 505.523 250.411C508.833 254.67 510.523 259.866 511.416 265.242C511.794 267.407 512.016 269.614 512.185 271.792C512.743 279.348 512.576 287.043 514.601 294.347C516.528 286.387 522.924 279.488 530.901 277.672C538.878 275.856 548.023 279.613 551.794 286.89C555.565 294.167 553.037 304.263 545.942 308.355C555.271 308.397 563.888 316.4 564.615 325.701C565.342 335.002 558.093 344.262 548.875 345.77C552.833 348.548 555.964 352.346 557.936 356.76C559.908 361.175 560.648 366.041 560.076 370.842C559.505 375.643 557.643 380.199 554.69 384.028C551.737 387.856 547.802 390.813 543.303 392.584C544.924 395.587 545.734 398.96 545.653 402.372C545.572 405.783 544.604 409.114 542.843 412.037C541.081 414.96 538.589 417.373 535.611 419.039C532.633 420.704 529.272 421.565 525.859 421.535C527.616 423.842 528.633 426.627 528.775 429.523C528.918 432.42 528.179 435.291 526.656 437.759C525.134 440.227 522.899 442.176 520.247 443.348C517.595 444.521 514.649 444.862 511.799 444.327C516.299 452.805 508.364 464.801 498.811 464.005" stroke="#171717" stroke-width="4.19" stroke-linecap="round" stroke-linejoin="round"/>
<path d="M379.899 330.324C380.675 331.127 381.321 332.045 381.813 333.047C381.09 332.202 380.449 331.291 379.899 330.324V330.324Z" stroke="#171717" stroke-width="4.19" stroke-linecap="round" stroke-linejoin="round"/>
<path d="M399.316 502.272C395.303 503.298 391.072 503.061 387.2 501.592C383.327 500.124 380.002 497.497 377.679 494.068C375.355 490.64 374.146 486.579 374.217 482.438C374.287 478.297 375.634 474.279 378.074 470.932C374.53 471.926 370.745 471.576 367.444 469.948C364.144 468.321 361.561 465.531 360.193 462.115C358.824 458.699 358.767 454.898 360.03 451.442C361.294 447.986 363.791 445.119 367.04 443.392C362.52 443.256 358.168 441.648 354.646 438.811C351.124 435.975 348.625 432.065 347.53 427.678C346.434 423.29 346.802 418.665 348.577 414.506C350.352 410.346 353.437 406.881 357.363 404.636C353.466 402.875 350.166 400.019 347.865 396.416C345.563 392.813 344.36 388.617 344.401 384.342C344.443 380.066 345.727 375.895 348.098 372.337C350.469 368.779 353.824 365.988 357.754 364.303C355.142 358.003 353.187 351.231 353.801 344.443C354.43 337.656 358.047 330.843 364.164 327.866C369.275 325.38 376.064 326.366 379.904 330.324" stroke="#171717" stroke-width="4.19" stroke-linecap="round" stroke-linejoin="round"/>
<path d="M109.007 768.155C103.588 766.716 101.772 759.426 101.228 754.44C83.659 595.34 70.279 441.813 48.157 257.254C47.319 250.187 54.973 246.054 61.578 244.964C62.6818 244.785 63.7978 244.692 64.916 244.685C71.899 244.685 80.279 243.285 87.262 241.891C271.612 223.736 453.169 204.184 636.122 193.011C638.975 194.44 641.429 196.554 643.264 199.165C645.099 201.775 646.259 204.8 646.638 207.968" stroke="#171717" stroke-width="4.19" stroke-linecap="round" stroke-linejoin="round"/>
<path d="M140.989 767.68C131.129 768.155 121.199 768.406 111.004 768.406C110.334 768.412 109.667 768.327 109.021 768.155" stroke="#171717" stroke-width="4.19" stroke-linecap="round" stroke-linejoin="round"/>
<path d="M180.233 764.747C180.163 764.747 180.093 764.761 180.023 764.761C176.197 765.138 172.389 765.488 168.599 765.809C159.382 766.609 150.248 767.233 141.045 767.68" stroke="#171717" stroke-width="4.19" stroke-linecap="round" stroke-linejoin="round"/>
<path d="M624.782 733.534C615.858 734.12 606.85 734.707 597.842 735.265" stroke="#171717" stroke-width="4.19" stroke-linecap="round" stroke-linejoin="round"/>
<path d="M658.481 731.313C649.581 731.899 640.464 732.5 631.233 733.113" stroke="#171717" stroke-width="4.19" stroke-linecap="round" stroke-linejoin="round"/>
<path d="M669.124 730.573L668.244 730.698C665.451 730.866 662.629 731.048 659.794 731.229" stroke="#171717" stroke-width="4.19" stroke-linecap="round" stroke-linejoin="round"/>
<path d="M684.43 617.086C685.003 649.696 694.779 681.818 691.986 713.939C690.631 726.118 678.786 729.12 669.165 730.559" stroke="#171717" stroke-width="4.19" stroke-linecap="round" stroke-linejoin="round"/>
<path d="M646.638 207.968C652.881 287.979 662.657 366.188 668.677 446.478" stroke="#171717" stroke-width="4.19" stroke-linecap="round" stroke-linejoin="round"/>
<path d="M595.132 735.391C604.769 734.791 614.712 734.176 624.782 733.534L631.234 733.115C640.27 732.542 649.39 731.941 658.481 731.315L659.794 731.231C662.909 731.008 666.019 730.789 669.123 730.575C669.137 730.575 669.151 730.561 669.165 730.561C677.07 730.002 684.919 729.416 692.642 728.815" stroke="#171717" stroke-width="4.19" stroke-linecap="round" stroke-linejoin="round"/>
<path d="M692.642 728.813C698.969 726.513 700.365 733.492 703.158 739.078C767.402 751.647 828.112 762.82 893.751 779.578C893.751 779.592 892.494 779.746 890.106 780.025C841.826 785.835 305.675 848.64 285.578 846.614C262.678 844.324 176.769 800.597 122.302 775.444C122.26 775.43 122.219 775.402 122.177 775.388C122.177 775.388 120.777 769.802 124.97 769.802C130.265 768.795 135.613 768.087 140.989 767.679C141.003 767.679 141.031 767.665 141.045 767.679C150.36 766.813 160.988 766.213 168.599 765.808C173.499 765.542 177.146 765.375 178.389 765.291" stroke="#171717" stroke-width="4.19" stroke-linecap="round" stroke-linejoin="round"/>
<path d="M61.7876 244.531L61.5226 244.573C41.0756 247.296 40.1826 263.916 40.1826 263.916" stroke="#171717" stroke-width="4.19" stroke-linecap="round" stroke-linejoin="round"/>
<path d="M109.606 768.169C109.411 768.177 109.215 768.172 109.02 768.155C109.02 768.155 109.02 768.169 109.006 768.155C106.352 768.085 95.5291 767.094 94.2441 756.005" stroke="#171717" stroke-width="4.19" stroke-linecap="round" stroke-linejoin="round"/>
<path d="M40.1826 263.916L94.2446 756.005" stroke="#171717" stroke-width="4.19" stroke-linecap="round" stroke-linejoin="round"/>
<path d="M122 776.116L121.93 792.093C121.93 792.093 262.73 868.277 287.384 870.441C314.5 872.83 893.1 796.7 893.1 796.7L893.924 780.137" stroke="#171717" stroke-width="4.19" stroke-linecap="round" stroke-linejoin="round"/>
<path d="M512.523 265.075C543.946 261.444 571.71 259.975 609.586 258.651C615.172 258.469 620.759 264.237 623.258 270.033" stroke="#171717" stroke-width="4.19" stroke-linecap="round" stroke-linejoin="round"/>
<path d="M172.286 735.852C164.074 736.285 157.091 737.681 148.712 739.078C140.332 739.078 131.953 732.095 130.556 722.319C129.156 699.973 94.2448 366.188 88.6558 336.86C87.2558 324.29 87.2558 307.531 101.226 306.135C226.919 290.772 349.819 279.599 474.06 269.572" stroke="#171717" stroke-width="4.19" stroke-linecap="round" stroke-linejoin="round"/>
<path d="M657.07 641.079C657.07 644.11 657.014 645.506 657.07 648.3C657.363 663.662 659.459 678.214 658.471 691.594C658.01 697.823 648.693 698.577 643.107 699.973C632.87 700.909 614.171 702.445 592.887 704.135C550.249 707.515 497.262 711.509 481.271 712.473" stroke="#171717" stroke-width="4.19" stroke-linecap="round" stroke-linejoin="round"/>
<path d="M623.259 270.033C629.139 343.843 637.519 417.862 643.482 491.993" stroke="#171717" stroke-width="4.19" stroke-linecap="round" stroke-linejoin="round"/>
<path d="M706.4 284.851C706.386 284.851 706.386 284.837 706.372 284.837C697.86 281.595 689.917 277.022 682.839 271.29C680.239 269.19 677.56 266.402 677.909 263.09C678.258 259.89 681.415 257.671 684.557 256.973C690.409 255.702 696.386 258.202 701.623 261.079C706.86 263.956 712.112 267.321 718.061 267.964" stroke="#171717" stroke-width="4.19" stroke-linecap="round" stroke-linejoin="round"/>
<path d="M772.9 272.547C772.914 272.477 772.914 272.393 772.928 272.323C776.632 238.04 771.806 203.373 758.879 171.406C758.041 169.353 756.602 166.936 754.379 167.118C752.689 167.244 751.543 168.918 750.943 170.512C749.543 174.282 749.784 178.412 750.049 182.425C750.496 189.38 750.943 196.33 751.39 203.276C752.228 216.418 753.071 229.564 753.918 242.715" stroke="#171717" stroke-width="4.19" stroke-linecap="round" stroke-linejoin="round"/>
<path d="M752.123 211.418C751.923 208.708 751.69 205.985 751.397 203.276C750.307 193.192 748.397 183.165 744.597 173.836C743.438 171.015 741.567 167.9 738.536 167.593C735.198 167.258 732.629 170.526 731.483 173.654C729.668 178.626 729.64 183.919 730.254 189.212C730.645 192.578 731.288 195.93 731.902 199.226C734.747 214.497 736.724 229.916 737.824 245.411" stroke="#171717" stroke-width="4.19" stroke-linecap="round" stroke-linejoin="round"/>
<path d="M729.861 189.254C728.967 185.679 728.004 181.978 725.63 179.171C723.256 176.364 719.024 174.771 715.798 176.531C712.013 178.612 711.552 183.779 711.831 188.081C713.465 213.443 724.731 237.813 723.618 263.203C723.549 264.768 723.381 266.444 722.334 267.603C721.287 268.762 719.876 268.552 718.228 268.064" stroke="#171717" stroke-width="4.19" stroke-linecap="round" stroke-linejoin="round"/>
<path d="M192.076 281.778L142.676 286.178C140.659 286.357 138.654 285.728 137.101 284.429C135.549 283.13 134.575 281.267 134.395 279.251L132.395 256.906C132.217 254.887 132.848 252.881 134.15 251.327C135.452 249.774 137.317 248.802 139.336 248.624L188.719 244.211C190.739 244.034 192.747 244.665 194.303 245.966C195.859 247.267 196.835 249.132 197.019 251.152L199 273.482C199.181 275.5 198.554 277.508 197.256 279.064C195.957 280.619 194.094 281.596 192.076 281.778V281.778Z" stroke="#171717" stroke-width="4.19" stroke-linecap="round" stroke-linejoin="round"/>
<path d="M159.967 275.675L176.684 260.773L156.113 254.531L159.967 275.675Z" stroke="#171717" stroke-width="4.19" stroke-linecap="round" stroke-linejoin="round"/>
<path d="M214.184 259.237L331.498 248.064" stroke="#171717" stroke-width="4.19" stroke-linecap="round" stroke-linejoin="round"/>
<path d="M284.838 647.649L306.032 619.552" stroke="#171717" stroke-width="4.19" stroke-linecap="round" stroke-linejoin="round"/>
<path d="M281.387 625.468L304.553 639.269" stroke="#171717" stroke-width="4.19" stroke-linecap="round" stroke-linejoin="round"/>
<path d="M217.308 756.09L240.475 775.314" stroke="#171717" stroke-width="4.19" stroke-linecap="round" stroke-linejoin="round"/>
<path d="M217.308 779.257L238.01 753.625" stroke="#171717" stroke-width="4.19" stroke-linecap="round" stroke-linejoin="round"/>
<path d="M415.459 732.923L439.119 754.611" stroke="#171717" stroke-width="4.19" stroke-linecap="round" stroke-linejoin="round"/>
<path d="M413.979 758.555L436.654 734.402" stroke="#171717" stroke-width="4.19" stroke-linecap="round" stroke-linejoin="round"/>
<path d="M447.99 701.376C467.023 720.185 455.263 789.438 448.976 790.593" stroke="#171717" stroke-width="4.19" stroke-linecap="round" stroke-linejoin="round"/>
<path d="M337.087 782.214L312.933 765.455" stroke="#171717" stroke-width="4.19" stroke-linecap="round" stroke-linejoin="round"/>
<path d="M371.426 638.611L390.157 616.431" stroke="#171717" stroke-width="4.19" stroke-linecap="round" stroke-linejoin="round"/>
<path d="M464.258 610.187L490.382 628.425" stroke="#171717" stroke-width="4.19" stroke-linecap="round" stroke-linejoin="round"/>
<path d="M612.626 633.848L633.327 610.187" stroke="#171717" stroke-width="4.19" stroke-linecap="round" stroke-linejoin="round"/>
<path d="M630.369 541.18L657.479 544.629" stroke="#171717" stroke-width="4.19" stroke-linecap="round" stroke-linejoin="round"/>
<path d="M708.742 441.61L736.346 427.809" stroke="#171717" stroke-width="4.19" stroke-linecap="round" stroke-linejoin="round"/>
<path d="M776.765 378.517L760.992 362.744" stroke="#171717" stroke-width="4.19" stroke-linecap="round" stroke-linejoin="round"/>
<path d="M746.206 330.212L762.965 320.353" stroke="#171717" stroke-width="4.19" stroke-linecap="round" stroke-linejoin="round"/>
<path d="M689.684 324.3C689.684 324.3 725.5 277.633 808.97 304.579" stroke="#171717" stroke-width="4.19" stroke-linecap="round" stroke-linejoin="round"/>
<path d="M732.403 373.589L710.715 358.8" stroke="#171717" stroke-width="4.19" stroke-linecap="round" stroke-linejoin="round"/>
<path d="M710.715 377.531L731.417 356.83" stroke="#171717" stroke-width="4.19" stroke-linecap="round" stroke-linejoin="round"/>
<path d="M697.241 528.363L719.587 496.489" stroke="#171717" stroke-width="4.19" stroke-linecap="round" stroke-linejoin="round"/>
<path d="M696.257 502.403L720.574 522.12" stroke="#171717" stroke-width="4.19" stroke-linecap="round" stroke-linejoin="round"/>
<path d="M565.469 603.614L544.109 580.612" stroke="#171717" stroke-width="4.19" stroke-linecap="round" stroke-linejoin="round"/>
<path d="M563.498 578.64L546.082 604.93" stroke="#171717" stroke-width="4.19" stroke-linecap="round" stroke-linejoin="round"/>
<path d="M407.407 652.907L430.41 675.581" stroke="#171717" stroke-width="4.19" stroke-linecap="round" stroke-linejoin="round"/>
<path d="M406.423 678.539L429.425 652.577" stroke="#171717" stroke-width="4.19" stroke-linecap="round" stroke-linejoin="round"/>
<path d="M804.369 602.63L782.68 586.855" stroke="#171717" stroke-width="4.19" stroke-linecap="round" stroke-linejoin="round"/>
<path d="M783.994 607.886L801.082 582.255" stroke="#171717" stroke-width="4.19" stroke-linecap="round" stroke-linejoin="round"/>
<path d="M826.057 209.94L847.746 187.267" stroke="#171717" stroke-width="4.19" stroke-linecap="round" stroke-linejoin="round"/>
<path d="M845.774 206.982L829.015 193.181" stroke="#171717" stroke-width="4.19" stroke-linecap="round" stroke-linejoin="round"/>
<path d="M497.775 155.72L513.548 129.103" stroke="#171717" stroke-width="4.19" stroke-linecap="round" stroke-linejoin="round"/>
<path d="M474.116 159.663L467.216 64.038" stroke="#171717" stroke-width="4.19" stroke-linecap="round" stroke-linejoin="round"/>
<path d="M449.47 166.564L426.797 144.876" stroke="#171717" stroke-width="4.19" stroke-linecap="round" stroke-linejoin="round"/>
<path d="M651.723 61.286L663.525 75.773L682.148 74.263L672.017 89.963L679.208 107.21L661.145 102.427L646.965 114.595L645.932 95.938L629.979 86.212L647.401 79.464L651.723 61.286Z" stroke="#171717" stroke-width="4.19" stroke-linecap="round" stroke-linejoin="round"/>
<path d="M851.909 480.668L853.437 494.483L865.684 501.057L853.017 506.779L850.549 520.457L841.193 510.178L827.422 512.058L834.307 499.984L828.264 487.468L841.873 490.284L851.909 480.668Z" fill="#171717"/>
<path d="M838.121 63.92C835.498 83.98 835.089 104.851 841.804 123.935C848.519 143.019 863.42 160.109 883.016 165.135C890.439 167.041 898.861 167.015 905.163 162.653C911.465 158.291 914.317 148.64 909.575 142.619C904.153 135.738 892.299 137.731 886.754 144.513C881.209 151.295 880.51 160.782 881.049 169.526C884.117 219.243 918.571 263.226 920.133 313.012C920.483 324.182 919.052 335.673 913.856 345.568C908.66 355.463 899.256 363.56 888.201 365.195C880.81 366.289 872.037 363.561 869.321 356.601C866.605 349.641 874.783 340.434 881.145 344.35" stroke="#171717" stroke-width="4.19" stroke-linecap="round" stroke-linejoin="round"/>
<path fill-rule="evenodd" clip-rule="evenodd" d="M101.226 306.131C225.284 290.968 346.621 279.886 469.213 269.96C469.075 270.304 469.028 270.69 469.094 271.082L469.416 272.994C458.897 268.493 445.403 271.644 438.243 280.66C435.633 279.585 432.825 279.048 429.99 279.09C426.552 279.141 423.179 280.041 420.173 281.71C417.166 283.38 414.619 285.766 412.758 288.658C411.526 290.571 410.62 292.666 410.069 294.857C406.52 292.747 402.49 291.53 398.331 291.34C393.019 291.096 387.767 292.537 383.323 295.457C378.879 298.377 375.472 302.626 373.587 307.598C372.017 311.739 371.571 316.206 372.27 320.548C368.178 320.829 364.194 322.056 360.638 324.146C356.318 326.685 352.805 330.395 350.505 334.846C348.205 339.298 347.211 344.309 347.64 349.302C347.991 353.392 349.284 357.332 351.403 360.819C347.671 362.546 344.39 365.143 341.844 368.406C338.74 372.384 336.864 377.18 336.443 382.208C336.023 387.236 337.078 392.278 339.478 396.716C341.414 400.294 344.156 403.354 347.472 405.664C344.874 408.275 342.871 411.433 341.617 414.922C340.032 419.333 339.707 424.097 340.679 428.682C341.65 433.266 343.88 437.49 347.118 440.878C349.572 443.446 352.531 445.457 355.795 446.794C354.113 448.985 352.94 451.543 352.386 454.281C351.601 458.153 352.095 462.176 353.794 465.743C355.492 469.311 358.303 472.23 361.804 474.063C364.281 475.359 367.008 476.062 369.773 476.136C368.854 479.208 368.531 482.44 368.834 485.654C369.243 489.994 370.781 494.153 373.293 497.716C375.806 501.279 379.207 504.124 383.158 505.967C386.557 507.552 390.262 508.35 393.997 508.31C394.56 510.859 394.867 512.838 394.961 514.388C395.076 516.277 394.86 517.348 394.56 517.99C394.032 519.12 392.935 519.631 389.555 520.478C381.248 522.559 376.971 525.402 371.688 528.915L371.335 529.149C368.251 531.198 365.69 534.474 364.48 537.985C363.606 540.521 363.396 543.351 364.383 545.927C316.73 555.372 269.683 573.063 232.169 604.262C193.891 636.097 166.468 683.328 165.998 733.386C165.987 734.543 166.916 735.49 168.073 735.501C169.23 735.512 170.177 734.583 170.188 733.426C170.644 684.86 197.295 638.715 234.848 607.484C272.4 576.253 319.859 558.691 368.088 549.475C368.825 549.334 369.43 548.81 369.675 548.1C369.92 547.391 369.767 546.605 369.273 546.04C367.782 544.33 367.542 541.961 368.441 539.35C369.346 536.724 371.322 534.188 373.654 532.639L373.967 532.431C379.186 528.962 382.968 526.447 390.574 524.542L390.574 524.542L390.651 524.523C393.56 523.794 396.859 522.967 398.356 519.764C399.075 518.225 399.278 516.356 399.144 514.134C399.008 511.9 398.518 509.122 397.681 505.642C397.425 504.58 396.403 503.904 395.344 504.058C391.768 504.337 388.181 503.686 384.929 502.17C381.64 500.635 378.809 498.267 376.718 495.301C374.626 492.335 373.346 488.874 373.005 485.26C372.664 481.647 373.274 478.007 374.774 474.702C375.094 473.998 375 473.176 374.53 472.563C374.061 471.949 373.291 471.644 372.529 471.768C369.525 472.259 366.443 471.762 363.747 470.35C361.05 468.939 358.885 466.69 357.577 463.942C356.268 461.194 355.888 458.096 356.492 455.113C357.096 452.13 358.653 449.424 360.928 447.402C361.506 446.888 361.753 446.098 361.573 445.346C361.392 444.594 360.811 444.003 360.063 443.808C356.28 442.825 352.847 440.808 350.147 437.983C347.447 435.158 345.588 431.636 344.778 427.813C343.967 423.99 344.238 420.017 345.56 416.34C346.881 412.662 349.201 409.425 352.26 406.993C352.81 406.555 353.104 405.87 353.043 405.169C352.981 404.468 352.571 403.845 351.952 403.51C348.231 401.498 345.177 398.444 343.164 394.722C341.151 391.001 340.267 386.773 340.619 382.557C340.971 378.341 342.545 374.319 345.148 370.983C347.75 367.647 351.269 365.143 355.273 363.776C355.909 363.558 356.402 363.049 356.599 362.406C356.684 362.128 356.709 361.84 356.678 361.56C357.02 362.482 357.381 363.395 357.756 364.299C353.826 365.984 350.471 368.775 348.1 372.333C345.729 375.891 344.445 380.062 344.403 384.338C344.362 388.613 345.565 392.808 347.866 396.412C350.167 400.015 353.467 402.871 357.364 404.632C353.438 406.877 350.353 410.342 348.578 414.502C346.803 418.661 346.435 423.287 347.531 427.674C348.627 432.062 351.126 435.971 354.648 438.808C358.17 441.644 362.522 443.253 367.043 443.388C363.793 445.115 361.297 447.982 360.033 451.438C358.769 454.894 358.827 458.695 360.195 462.111C361.564 465.527 364.146 468.317 367.447 469.944C370.747 471.572 374.533 471.922 378.076 470.928C375.637 474.275 374.29 478.293 374.219 482.434C374.148 486.575 375.357 490.636 377.681 494.064C380.005 497.493 383.329 500.12 387.202 501.588C391.074 503.057 395.305 503.294 399.318 502.268L399.402 502.254C400.156 509.6 400.919 516.941 401.692 524.278C395.17 524.778 388.492 525.521 382.792 528.705C376.621 532.159 371.943 539.338 373.689 546.181C373.953 547.207 374.352 548.193 374.876 549.114L374.555 549.309C312.895 557.675 255.733 588.651 214.463 635.209C193.445 658.909 176.392 687.582 173.222 719.103C172.663 724.65 172.606 730.235 173.054 735.792L172.286 735.848C165.46 736.208 159.484 737.233 152.849 738.371L152.842 738.372L152.826 738.375L152.796 738.38C151.465 738.608 150.108 738.841 148.712 739.074C140.332 739.074 131.953 732.091 130.556 722.315C129.156 699.969 94.2448 366.184 88.6558 336.856C87.2558 324.286 87.2558 307.527 101.226 306.131ZM353.803 344.439C353.306 349.929 354.49 355.409 356.343 360.637C356.319 360.6 356.293 360.564 356.266 360.528C353.718 357.164 352.175 353.148 351.814 348.943C351.454 344.739 352.29 340.519 354.227 336.77C356.164 333.021 359.123 329.897 362.761 327.758C366.399 325.62 370.568 324.555 374.785 324.687C375.449 324.708 376.083 324.413 376.495 323.892C376.906 323.371 377.046 322.685 376.873 322.045C375.712 317.765 375.934 313.229 377.505 309.083C379.077 304.937 381.918 301.394 385.624 298.959C389.329 296.524 393.709 295.322 398.139 295.525C402.568 295.728 406.82 297.326 410.287 300.089C410.893 300.572 411.715 300.681 412.426 300.373C413.136 300.065 413.619 299.39 413.681 298.618C413.9 295.879 414.794 293.236 416.281 290.926C417.768 288.615 419.804 286.708 422.207 285.374C424.609 284.04 427.305 283.321 430.052 283.28C432.8 283.239 435.515 283.879 437.956 285.141C438.901 285.629 440.062 285.333 440.656 284.45C446.723 275.443 460.251 272.478 469.655 277.777C469.437 277.674 469.216 277.575 468.993 277.48C465.589 276.025 461.851 275.53 458.185 276.048C454.519 276.566 451.064 278.077 448.196 280.419C445.328 282.76 443.155 285.842 441.914 289.33C439.443 286.769 436.195 285.098 432.675 284.578C429.155 284.058 425.562 284.718 422.456 286.455C419.351 288.192 416.908 290.908 415.509 294.179C414.109 297.451 413.833 301.094 414.722 304.539C407.222 296.033 392.712 295.07 384.137 302.486C376.428 309.175 374.78 321.619 379.905 330.32C376.065 326.367 369.277 325.376 364.166 327.862C358.049 330.836 354.432 337.652 353.803 344.439ZM477.499 284.302C475.959 282.158 474.022 280.343 471.803 278.95C472.32 279.05 472.867 278.953 473.328 278.657C474.036 278.204 474.404 277.373 474.264 276.544C473.918 274.491 473.572 272.438 473.226 270.386C473.181 270.12 473.088 269.875 472.957 269.657L474.06 269.568H474.199C474.272 274.654 475.396 279.67 477.499 284.302ZM261.635 409.734C262.339 409.359 263.194 409.415 263.843 409.879L275.036 417.895L287.986 413.22C288.736 412.949 289.575 413.127 290.15 413.68C290.725 414.233 290.936 415.064 290.695 415.824L286.528 428.946L294.977 439.818C295.466 440.447 295.556 441.3 295.208 442.018C294.86 442.735 294.134 443.193 293.337 443.198L279.569 443.291L271.842 454.686C271.394 455.346 270.611 455.695 269.821 455.585C269.031 455.476 268.371 454.928 268.12 454.171L263.776 441.106L250.551 437.278C249.785 437.056 249.212 436.418 249.071 435.633C248.931 434.848 249.249 434.052 249.891 433.579L260.974 425.41L260.529 411.65C260.503 410.853 260.932 410.11 261.635 409.734ZM264.854 415.757L265.198 426.375C265.22 427.065 264.902 427.721 264.347 428.13L255.794 434.433L265.999 437.388C266.662 437.58 267.187 438.085 267.405 438.739L270.757 448.821L276.72 440.027C277.107 439.457 277.75 439.113 278.44 439.108L289.063 439.037L282.544 430.648C282.12 430.103 281.992 429.385 282.201 428.728L285.416 418.602L275.423 422.21C274.775 422.444 274.053 422.344 273.492 421.942L264.854 415.757ZM302.591 374.559L301.1 367.238L296.196 372.875L288.772 372.03L292.618 378.436L289.521 385.236L296.801 383.559L302.311 388.605L302.966 381.162L309.468 377.482L302.591 374.559Z" fill="#171717"/>
<path d="M620.13 116.631L621.237 126.648L630.117 131.414L620.933 135.563L619.144 145.481L612.359 138.028L602.374 139.391L607.366 130.636L602.984 121.561L612.852 123.603L620.13 116.631Z" fill="#171717"/>
<path d="M786.649 241.031C788.161 219.891 786.153 198.647 780.708 178.164" stroke="#171717" stroke-width="4.19" stroke-linecap="round" stroke-linejoin="round"/>
<path d="M672.559 645.108C695.301 629.195 714.503 608.747 728.959 585.052" stroke="#171717" stroke-width="4.19" stroke-linecap="round" stroke-linejoin="round"/>
<g opacity="0.1">
<path d="M500.388 356.173C491.388 354.873 482.439 353.315 473.365 352.645C463.951 351.95 454.533 352.294 445.12 351.883C436.367 351.501 428.081 349.864 419.293 351.083C411.993 352.097 404.774 354.796 399.377 360.006C393.49 365.689 391.893 373.606 391.077 381.434C390.16 390.267 390.289 399.272 390.237 408.142C390.125 427.055 390.737 445.955 392.075 464.842C393.691 486.443 396.487 507.939 400.45 529.234L410.657 519.027C400.381 517.496 390.122 520.527 383.09 528.492C379.889 532.152 377.655 536.554 376.59 541.298C375.484 545.914 375.256 549.925 370.7 552.325C362.432 556.682 351.295 556.577 342.264 558.564C332.224 560.776 322.35 563.685 312.715 567.269C274.007 581.656 237.841 605.412 211.377 637.309C183.367 671.071 159.461 718.136 176.704 762.34C184.213 781.592 197.784 797.894 217.217 805.796C239.826 814.989 265.304 810.689 288.748 807.88C348.414 800.731 408.282 794.988 468.032 788.58C473.192 788.026 477.641 784.559 477.641 778.97C477.641 774.202 473.225 768.807 468.032 769.361L318.3 785.343C306.154 786.643 294.012 787.934 281.852 789.079C270.517 790.147 259.178 791.661 247.77 791.511C229.182 791.267 212.458 784.589 201.97 768.695C178.745 733.495 195.919 690.064 218.103 659.039C240.541 627.711 270.865 602.873 306 587.046C315.721 582.764 325.752 579.221 336.006 576.446C346.246 573.641 356.658 572.295 367.006 570.076C377.861 567.746 387.458 562.138 390.606 550.876C391.877 546.33 391.932 541.591 395.606 538.182C397.011 536.863 398.706 535.891 400.554 535.344C402.403 534.797 404.354 534.69 406.251 535.032C410.871 535.961 417.519 532.786 416.751 527.032C412.133 493.126 409.404 458.989 408.576 424.779C408.4 416.302 408.369 407.824 408.485 399.343C408.585 392.143 407.964 384.251 409.437 377.164C409.854 374.576 410.768 372.093 412.129 369.852C413.776 367.473 416.645 366.66 419.342 365.997C426.333 364.276 433.71 363.836 440.795 362.489C450.395 360.665 460.702 361.343 470.444 361.514C480.186 361.685 489.875 361.46 499.589 362.07C502.91 362.279 503.756 356.67 500.389 356.177L500.388 356.173Z" fill="#171717"/>
</g>
<g opacity="0.1">
<path d="M507.78 558.477C517.357 564.523 530.737 562.7 541.588 562.818C553.175 562.945 566.146 560.018 577.149 556.502C599.863 549.268 620.953 537.682 639.241 522.391C678.19 489.769 697.415 439.65 705.469 390.718C710.489 360.218 711.735 329.383 712.536 298.531C712.883 285.205 692.029 285.183 691.818 298.531C691.04 347.674 690.148 398.342 672.237 444.8C655.926 487.108 623.492 520.674 581 536.954C569.467 541.442 557.552 544.876 545.4 547.215C539.166 548.377 533.263 549.653 526.9 550.067C520.79 550.467 514.226 550.522 508.52 552.823C506.097 553.799 505.373 556.957 507.781 558.477H507.78Z" fill="#171717"/>
</g>
</g>
<defs>
<linearGradient id="paint0_linear_38_4078" x1="490.824" y1="272.294" x2="490.824" y2="811.44" gradientUnits="userSpaceOnUse">
<stop stop-color="#FFDD33"/>
<stop offset="1" stop-color="#E89A00"/>
</linearGradient>
<linearGradient id="paint1_linear_38_4078" x1="440.627" y1="519.131" x2="440.627" y2="558.807" gradientUnits="userSpaceOnUse">
<stop stop-color="#FFDD33"/>
<stop offset="1" stop-color="#E89A00"/>
</linearGradient>
<linearGradient id="paint2_linear_38_4078" x1="165.697" y1="244.186" x2="165.697" y2="286.212" gradientUnits="userSpaceOnUse">
<stop stop-color="#FFDD33"/>
<stop offset="1" stop-color="#E89A00"/>
</linearGradient>
<clipPath id="clip0_38_4078">
<rect width="960" height="960" fill="white"/>
</clipPath>
</defs>
</svg>
