<svg width="960" height="960" viewBox="0 0 960 960" fill="none" xmlns="http://www.w3.org/2000/svg">
<g clip-path="url(#clip0_46_7737)">
<g clip-path="url(#clip1_46_7737)">
<path fill-rule="evenodd" clip-rule="evenodd" d="M614.4 776.878C501.354 766.512 387.411 772.089 275.917 793.444C251.177 798.198 226.628 803.726 202.271 810.029L200.988 811.442C275.657 879.343 373.45 920.489 480.55 920.489C592.219 920.489 693.792 875.755 769.539 802.61L765.69 800.584C715.82 789.452 665.286 781.54 614.4 776.896V776.878ZM629.066 792.607C627.54 792.397 626.133 793.464 625.923 794.99C625.714 796.517 626.781 797.923 628.307 798.133L737.307 813.089C738.833 813.298 740.24 812.231 740.45 810.705C740.659 809.179 739.592 807.772 738.066 807.562L629.066 792.607Z" fill="url(#paint0_linear_46_7737)"/>
<path fill-rule="evenodd" clip-rule="evenodd" d="M615.841 768.117C617.588 758.619 619.64 747.464 618.361 739.264C616.724 728.759 611.2 718.31 601.776 713.404C593.967 709.346 584.707 709.569 575.932 709.904C554.934 710.678 533.949 711.465 512.976 712.265C456.149 714.379 399.336 716.505 342.536 718.643L303.825 720.093C297.002 720.335 289.806 720.707 284.042 724.388C273.816 730.893 271.994 745.007 272.831 757.093C273.028 759.933 273.168 762.253 273.299 764.421C273.726 771.462 274.055 776.908 275.917 793.442C387.411 772.087 501.353 766.51 614.4 776.876L614.53 775.576C614.891 773.285 615.354 770.765 615.841 768.117ZM589.051 721.319C587.747 720.499 586.025 720.891 585.205 722.195C584.385 723.499 584.778 725.221 586.082 726.041C597.879 733.457 602.816 750.287 596.897 762.901C596.242 764.295 596.842 765.956 598.237 766.61C599.631 767.265 601.292 766.665 601.946 765.271C609.063 750.106 603.232 730.234 589.051 721.319Z" fill="url(#paint1_linear_46_7737)"/>
<path fill-rule="evenodd" clip-rule="evenodd" d="M662.928 411.1C666.107 408.888 669.175 405.429 668.45 401.618C667.446 396.226 660.436 395.055 655.007 394.237C646.334 392.833 638.146 389.294 631.181 383.939C624.216 378.583 618.692 371.579 615.107 363.558L612.522 363.503C612.095 385.963 611.444 408.404 610.57 430.827C617.171 440.793 625.524 449.481 635.224 456.467C638.906 459.126 643.219 461.617 647.7 460.948C652.066 460.278 655.564 456.542 656.866 452.321C658.168 448.1 657.573 443.487 656.234 439.287C654.683 434.533 652.21 430.132 648.956 426.336C645.702 422.539 641.731 419.422 637.27 417.162C646.281 418.439 655.442 416.275 662.928 411.1ZM629.524 383.358C628.58 382.141 626.828 381.919 625.611 382.863C624.394 383.807 624.172 385.559 625.116 386.776C631.68 395.241 641.059 401.075 651.553 403.221C653.062 403.53 654.536 402.557 654.845 401.048C655.153 399.539 654.18 398.065 652.671 397.756C643.483 395.877 635.271 390.769 629.524 383.358Z" fill="#171717"/>
<path fill-rule="evenodd" clip-rule="evenodd" d="M612.1 176.663C600.653 190.348 589.938 204.628 580 219.445L578.301 218.293C581.11 210.577 583.955 202.732 584.401 194.532C584.866 186.349 582.598 177.592 576.555 172.032C570.532 166.473 560.286 165.246 554.132 170.694C551.18 173.314 549.521 177.008 547.881 180.659C547.496 181.516 547.113 182.37 546.714 183.207C535.577 206.802 510.03 220.747 484.39 225.507C463.158 229.464 441.44 228.167 419.809 226.876C415.319 226.608 410.833 226.34 406.356 226.12C380.308 224.837 353.255 225.376 329.568 236.253C300.507 249.621 279.33 278.831 275.686 310.606C274.076 324.682 275.675 338.805 277.277 352.946C278.671 365.253 280.066 377.574 279.348 389.886C278.429 404.281 274.663 418.351 268.267 431.28C261.871 444.21 252.973 455.741 242.088 465.206C253.454 469.02 265.847 468.362 276.745 463.365C269.606 467.976 266.724 478.518 270.424 486.439C274.589 495.35 285.428 500.067 295.134 498.45C304.82 496.851 313.076 489.711 317.52 480.935L317.854 480.917C315.711 450.331 314.205 419.69 313.554 389.031C313.182 371.758 313.108 354.262 317.254 337.491C321.419 320.721 330.251 304.508 344.511 294.746C362.993 282.085 387.056 282.124 409.456 282.624L551.822 285.803C572.497 286.249 593.618 286.658 613.773 282.698C620.037 281.493 626.197 279.802 632.199 277.641C657.652 268.382 680.614 247.056 683.571 220.133C684.221 214.165 683.738 207.657 679.964 202.991C673.921 195.535 661.687 196.111 653.841 201.652C645.976 207.192 641.439 216.191 637.219 224.819L636.047 224.633C638.614 209.198 636.178 193.347 629.094 179.396C627.048 175.399 623.627 171.048 619.165 171.606C616.209 171.963 614.015 174.376 612.1 176.663ZM279.683 461.877C278.645 462.248 277.658 462.748 276.745 463.365C277.745 462.9 278.716 462.417 279.683 461.877ZM672.105 213.889C672.135 212.349 670.911 211.077 669.371 211.046C667.831 211.016 666.558 212.241 666.528 213.781C666.161 232.583 654.117 250.737 636.941 258.387C635.534 259.014 634.902 260.663 635.528 262.07C636.155 263.477 637.804 264.109 639.211 263.483C658.363 254.953 671.696 234.855 672.105 213.889Z" fill="#171717"/>
<path d="M342.461 716.73C332.904 638.286 323.31 559.73 317.844 480.917C315.706 450.331 314.2 419.69 313.544 389.031C313.172 371.758 313.098 354.262 317.244 337.491C321.409 320.721 330.244 304.508 344.501 294.746C362.983 282.085 387.042 282.122 409.446 282.624L551.817 285.8C572.492 286.246 593.617 286.655 613.768 282.695C620.032 281.49 626.192 279.799 632.193 277.638C657.647 268.379 680.609 247.053 683.566 220.13C684.216 214.162 683.733 207.654 679.959 202.988C673.916 195.532 661.682 196.108 653.836 201.649C645.971 207.19 641.436 216.188 637.214 224.816" stroke="#171717" stroke-width="5.578" stroke-linecap="round" stroke-linejoin="round"/>
<path d="M635.968 225.153C636.002 224.981 636.026 224.807 636.042 224.633C638.609 209.198 636.172 193.347 629.089 179.396C627.043 175.396 623.622 171.048 619.16 171.606C616.204 171.959 614.01 174.376 612.095 176.663C600.65 190.348 589.936 204.628 580 219.445L579.889 219.613" stroke="#171717" stroke-width="5.578" stroke-linecap="round" stroke-linejoin="round"/>
<path d="M276.735 463.365C269.596 467.976 266.714 478.518 270.414 486.439C274.579 495.345 285.414 500.067 295.124 498.45C304.811 496.85 313.066 489.711 317.51 480.935" stroke="#171717" stroke-width="5.578" stroke-linecap="round" stroke-linejoin="round"/>
<path d="M276.734 463.365C277.734 462.9 278.705 462.417 279.672 461.877C278.635 462.249 277.648 462.748 276.734 463.365Z" stroke="#171717" stroke-width="5.578" stroke-linecap="round" stroke-linejoin="round"/>
<path d="M578.293 218.292C581.1 210.576 583.945 202.73 584.393 194.531C584.858 186.35 582.593 177.593 576.547 172.031C570.523 166.472 560.279 165.245 554.124 170.693C550.48 173.928 548.807 178.799 546.706 183.206C535.569 206.8 510.022 220.745 484.383 225.506C458.743 230.284 432.397 227.406 406.348 226.119C380.299 224.832 353.248 225.375 329.56 236.252C300.499 249.62 279.322 278.83 275.678 310.605C272.666 336.932 280.884 363.427 279.341 389.885C278.422 404.28 274.656 418.35 268.259 431.279C261.863 444.208 252.965 455.74 242.08 465.205C253.447 469.019 265.84 468.361 276.738 463.364" stroke="#171717" stroke-width="5.578" stroke-linecap="round" stroke-linejoin="round"/>
<path d="M615.107 363.558C618.692 371.579 624.215 378.583 631.18 383.939C638.146 389.294 646.334 392.833 655.007 394.237C660.436 395.055 667.446 396.226 668.45 401.618C669.175 405.429 666.107 408.888 662.928 411.1C655.442 416.274 646.281 418.439 637.27 417.162C641.73 419.421 645.702 422.539 648.956 426.335C652.21 430.132 654.683 434.533 656.234 439.287C657.573 443.487 658.168 448.1 656.866 452.321C655.564 456.542 652.066 460.278 647.7 460.948C643.219 461.617 638.906 459.126 635.224 456.467C625.524 449.48 617.171 440.793 610.57 430.827C610.515 430.764 610.465 430.697 610.421 430.627" stroke="#171717" stroke-width="5.578" stroke-linecap="round" stroke-linejoin="round"/>
<path d="M613.823 282.921C613.451 309.769 613.098 336.636 612.523 363.503C612.057 385.944 611.406 408.386 610.572 430.827C609.047 469.333 606.779 507.802 603.116 546.177C601.889 559.025 600.476 572.021 595.791 584.032C591.105 596.062 582.701 607.162 570.913 612.368C558.642 617.778 544.14 616.368 532.013 622.068C517.362 628.968 508.995 645.309 507.213 661.411C505.447 677.511 509.166 693.651 512.866 709.436" stroke="#171717" stroke-width="5.578" stroke-linecap="round" stroke-linejoin="round"/>
<path d="M564.59 330.3C540.568 331.6 516.54 332.889 492.506 334.167C489.419 334.334 485.906 334.725 484.083 337.235C482.614 339.262 482.8 342.013 483.042 344.505C487.207 387.287 491.378 430.063 495.555 472.833C496.02 477.633 496.355 482.91 493.472 486.777C487.281 495.088 472.648 489.696 464.746 496.427" stroke="#171717" stroke-width="5.578" stroke-linecap="round" stroke-linejoin="round"/>
<path d="M555.442 374.231C553.987 371.726 551.962 369.599 549.531 368.023C547.101 366.446 544.333 365.464 541.453 365.156C538.572 364.848 535.659 365.223 532.951 366.251C530.242 367.278 527.813 368.929 525.861 371.07" stroke="#171717" stroke-width="5.578" stroke-linecap="round" stroke-linejoin="round"/>
<path d="M438.382 381.24C435.548 378.535 432.165 376.471 428.464 375.187C424.762 373.904 420.828 373.431 416.928 373.801C413.027 374.171 409.252 375.375 405.858 377.331C402.463 379.287 399.529 381.951 397.254 385.14" stroke="#171717" stroke-width="5.578" stroke-linecap="round" stroke-linejoin="round"/>
<path d="M459.131 571.575C453.566 574.457 447.42 576.039 441.155 576.2C434.89 576.361 428.67 575.098 422.965 572.506C417.259 569.913 412.216 566.059 408.217 561.235C404.217 556.41 401.365 550.74 399.876 544.653" stroke="#171717" stroke-width="5.578" stroke-linecap="round" stroke-linejoin="round"/>
<path d="M275.917 793.5V793.444C273.482 771.82 273.668 769.161 272.831 757.095C271.994 745.009 273.816 730.895 284.042 724.39C289.806 720.709 297.002 720.337 303.825 720.095L342.536 718.645C399.336 716.506 456.149 714.38 512.976 712.267C533.949 711.467 554.934 710.68 575.932 709.906C584.707 709.571 593.967 709.348 601.776 713.406C611.202 718.315 616.724 728.764 618.361 739.269C619.997 749.755 616.185 765.076 614.53 775.581" stroke="#171717" stroke-width="5.578" stroke-linecap="round" stroke-linejoin="round"/>
<path d="M202.271 810.029C226.627 803.725 251.176 798.197 275.917 793.444C387.411 772.089 501.353 766.512 614.4 776.878V776.896C665.285 781.54 715.82 789.452 765.69 800.584" stroke="#171717" stroke-width="5.578" stroke-linecap="round" stroke-linejoin="round"/>
<path d="M200.988 811.442C112.3 730.823 56.2998 612.442 56.2998 480.489C56.2998 237.48 246.245 40.4888 480.552 40.4888C714.859 40.4888 904.785 237.48 904.785 480.489C904.785 607.683 852.744 722.289 769.541 802.61C693.794 875.754 592.221 920.489 480.552 920.489C373.455 920.489 275.657 879.343 200.988 811.442Z" stroke="#171717" stroke-width="5.578" stroke-linecap="round" stroke-linejoin="round"/>
<path d="M229.5 342.909C218.837 292.153 239.163 236.151 279.9 204.048" stroke="#171717" stroke-width="5.578" stroke-linecap="round" stroke-linejoin="round"/>
<path d="M197.765 278.623C195.912 262.257 200.466 245.81 210.471 232.728C210.992 234.038 211.512 235.349 212.031 236.659" stroke="#171717" stroke-width="5.578" stroke-linecap="round" stroke-linejoin="round"/>
<path d="M598.2 657.326C627.709 650.344 651 622.57 652.738 592.297" stroke="#171717" stroke-width="5.578" stroke-linecap="round" stroke-linejoin="round"/>
<path d="M715.116 386.27L767.3 410.578" stroke="#171717" stroke-width="5.578" stroke-linecap="round" stroke-linejoin="round"/>
<path d="M699.743 343.774C737.297 328.728 774.852 313.682 812.407 298.636" stroke="#171717" stroke-width="5.578" stroke-linecap="round" stroke-linejoin="round"/>
<path d="M681.258 316.76C689.287 299.107 699.657 282.617 712.089 267.733" stroke="#171717" stroke-width="5.578" stroke-linecap="round" stroke-linejoin="round"/>
<g opacity="0.1">
<path d="M409.978 279.819C397.927 276.383 385.449 276.429 373.128 277.758C366.107 278.516 358.253 283.102 353.013 285.867C346.278 289.491 340.051 293.988 334.494 299.242C310.065 322.036 304.313 358.359 304.938 390.084C305.586 422.984 309.778 456.008 312.569 488.784C315.379 521.773 318.189 554.763 320.998 587.752C324.144 624.7 327.29 661.648 330.437 698.596C331.437 710.342 340.112 721.769 353.031 721.19C364.402 720.681 376.713 711.206 375.625 698.596L359.4 510.561C356.727 479.575 353.95 448.597 351.389 417.602C350.095 401.935 349.082 386.171 350.206 370.46C350.472 366.749 350.886 363.05 351.273 359.351C351.327 358.25 351.45 357.153 351.641 356.067C350.235 361.895 351.633 356.528 351.841 355.343C353.186 348.281 354.904 341.295 356.989 334.415C357.291 333.369 357.61 332.328 357.947 331.293C358.205 330.493 360.788 324.241 358.939 328.279C360.532 324.8 362.112 321.257 363.906 317.879C365.374 315.111 366.995 312.462 368.692 309.834C369.44 308.677 372.378 304.759 374.192 303.458C378.572 300.308 383.637 295.673 388.91 292.832C395.024 289.538 401.894 288.7 408.71 289.213C414.195 289.626 415.045 281.265 409.981 279.821L409.978 279.819Z" fill="#171717"/>
</g>
<g opacity="0.1">
<path d="M296.589 718.205C281.889 719.075 271.532 736.121 268.762 749.118C265.8 762.367 265.937 776.12 269.162 789.307C269.787 791.807 270.635 794.238 271.4 796.7C271.768 797.887 272.121 799.079 272.416 800.286C273.103 803.094 272.716 802.315 272.528 799.941C272.79 803.207 272.915 798.741 273.509 797.4C273.964 796.213 274.67 795.138 275.579 794.248L280.786 791.224C279.551 790.801 274.574 792.505 273.197 792.7C269.914 793.166 266.631 793.69 263.338 794.087C266.909 793.657 260.661 794.355 260.601 794.362L255.642 794.933L234.814 797.333C224.668 798.502 214.714 805.506 215.222 816.925C215.651 826.483 223.917 837.837 234.814 836.517C249.684 834.717 264.538 832.907 279.446 831.447C288.704 830.54 298.323 829.012 304.884 821.621C312.14 813.446 313.728 803.663 312.019 793.164C311.119 787.628 308.981 782.455 307.783 776.99C307.617 776.234 306.454 770.759 307.426 776.024C307.231 774.697 307.108 773.359 307.059 772.018C306.817 769.075 306.731 766.12 306.802 763.167C306.853 761.556 306.981 759.961 307.114 758.355C307.548 753.155 306.147 762.355 307.33 757.25C308.221 753.484 308.795 749.65 309.046 745.788C309.139 744.27 309.178 742.753 309.326 741.239C309.354 740.954 309.959 736.08 309.503 739.579C310.227 734.012 310.273 729.838 307.769 724.616C305.928 720.777 300.786 717.955 296.59 718.204L296.589 718.205Z" fill="#171717"/>
</g>
</g>
</g>
<defs>
<linearGradient id="paint0_linear_46_7737" x1="485.264" y1="771.817" x2="485.264" y2="920.489" gradientUnits="userSpaceOnUse">
<stop stop-color="#FFB800"/>
<stop offset="1" stop-color="#FF7F0A"/>
</linearGradient>
<linearGradient id="paint1_linear_46_7737" x1="445.706" y1="709.738" x2="445.706" y2="793.442" gradientUnits="userSpaceOnUse">
<stop stop-color="#FFB800"/>
<stop offset="1" stop-color="#FF7F0A"/>
</linearGradient>
<clipPath id="clip0_46_7737">
<rect width="960" height="960" fill="white"/>
</clipPath>
<clipPath id="clip1_46_7737">
<rect width="855" height="887" fill="white" transform="translate(53 37)"/>
</clipPath>
</defs>
</svg>
