<svg width="960" height="960" viewBox="0 0 960 960" fill="none" xmlns="http://www.w3.org/2000/svg">
<g clip-path="url(#clip0_38_4069)">
<path fill-rule="evenodd" clip-rule="evenodd" d="M639.99 840.39C633.89 847.99 623.29 851.39 613.49 853.69C596.59 857.59 577.79 860.09 562.29 853.29C562.29 863.72 562.2 874.16 562.1 884.59H562.49L563.909 884.613C594.533 885.105 625.063 885.596 655.69 885.99C665.69 886.19 675.8 886.29 685.4 883.59C695 880.89 704.1 874.89 708.3 865.89L709.66 865.06C708.654 862.549 707.185 860.249 705.33 858.28C704.582 857.49 703.79 856.742 702.96 856.04C699.753 853.404 696.065 851.417 692.1 850.19C685.21 848.06 677.98 847.67 670.75 847.38C669.16 847.32 667.57 847.26 665.99 847.19C657.29 846.69 648.19 845.59 640.69 840.99L639.99 840.39ZM653.856 855.544C658.34 854.722 662.909 854.467 667.457 854.784L667.458 854.784C676.291 855.392 684.852 858.09 692.438 862.656C693.137 863.077 694.045 862.852 694.466 862.152C694.887 861.453 694.661 860.545 693.962 860.124C685.976 855.316 676.961 852.476 667.662 851.835C662.868 851.501 658.051 851.77 653.323 852.636C652.521 852.783 651.989 853.553 652.136 854.356C652.283 855.159 653.053 855.691 653.856 855.544Z" fill="url(#paint0_linear_38_4069)"/>
<path fill-rule="evenodd" clip-rule="evenodd" d="M420.107 555.462C415.164 575.336 410.177 595.386 401.369 613.97C392.469 632.67 379.269 650.08 361.269 660.38C332.369 676.98 296.069 673.18 264.169 663.38C263.698 663.234 263.226 663.087 262.752 662.939C254.475 660.359 245.872 657.677 237.359 659.38C232.771 660.316 228.501 662.417 224.959 665.48C224.949 665.49 224.929 665.5 224.919 665.51L225.009 665.62L225.059 665.68C217.559 671.88 212.159 681.48 207.759 690.48C202.359 701.61 197.169 713.02 196.539 724.82C196.447 726.389 196.451 727.962 196.549 729.53C196.599 730.34 196.659 731.16 196.759 731.98C196.895 733.394 197.129 734.798 197.459 736.18C198.339 740.16 199.549 742.93 201.269 744.89C201.556 745.216 201.867 745.52 202.199 745.8C206.162 749.222 212.435 749.479 222.557 749.893C226.278 750.046 230.52 750.22 235.359 750.58C350.469 759.18 429.579 735.88 461.279 674.68C469.979 657.98 474.179 639.47 477.779 620.87C477.798 620.91 477.816 620.951 477.832 620.993C477.841 621.018 477.85 621.044 477.859 621.07C482.159 631.31 486.149 641.11 489.849 650.65C490.529 652.4 491.199 654.13 491.859 655.86C492.519 657.59 493.169 659.3 493.809 661.02C494.126 661.863 494.444 662.716 494.761 663.569L494.769 663.59C495.719 666.15 496.649 668.7 497.559 671.24C499.079 675.47 500.549 679.68 501.969 683.87C503.389 688.06 504.749 692.23 506.069 696.42C506.074 696.425 506.078 696.432 506.079 696.44C515.349 725.77 522.409 755.45 528.479 791.39C530.619 803.76 533.259 816.93 538.489 828.23C539.049 829.42 539.619 830.59 540.239 831.73C543.959 839.021 549.485 845.239 556.289 849.79C558.157 851.03 560.131 852.101 562.189 852.99C562.219 853 562.259 853.02 562.289 853.03C577.769 859.78 596.529 857.28 613.389 853.39C623.189 851.09 633.889 847.69 639.889 840.09C640.803 838.935 641.607 837.696 642.289 836.39C647.589 826.09 643.489 813.59 639.289 802.69C621.339 755.801 603.548 709.452 585.75 663.082C569.37 620.408 552.983 577.716 536.459 534.57H536.379C528.409 534.22 520.935 533.846 513.461 533.471C505.968 533.096 498.474 532.72 490.479 532.37H490.279L487.479 560.57L438.089 562.67L438.079 562.77L422.049 554.47L420.879 553.87L420.799 553.83L420.279 554.77L420.107 555.462ZM532.141 551.795C531.824 551.043 530.957 550.691 530.205 551.008C529.453 551.326 529.1 552.193 529.418 552.945C567.377 642.881 601.9 734.086 632.988 826.561C633.248 827.335 634.087 827.751 634.86 827.491C635.634 827.231 636.05 826.393 635.79 825.619C604.678 733.074 570.129 641.799 532.141 551.795Z" fill="#171717"/>
<path d="M269.069 508.16C272.869 515.77 277.369 523.87 271.469 531.57C265.769 539.07 254.759 543.07 246.559 546.67C235.868 551.372 224.794 555.153 213.459 557.97C210.559 558.67 179.559 564.87 179.359 563.37C176.571 545.917 172.731 528.649 167.859 511.66C177.259 506.56 187.959 504.26 198.459 502.16C208.959 500.06 219.659 497.96 229.159 492.96C238.659 488.06 246.959 479.76 249.359 469.26C255.859 482.26 262.459 495.36 269.069 508.16Z" fill="url(#paint1_linear_38_4069)"/>
<path d="M710.4 867.39C712.3 875.29 708.7 883.89 702.6 889.29C696.5 894.69 688.4 897.29 680.3 898.09C672.2 898.89 664.09 898.09 655.99 897.49C652.53 897.23 649.066 897.003 645.6 896.81C645.56 896.812 645.519 896.808 645.48 896.8C622.297 895.5 599.056 895.63 575.89 897.19C572.31 897.35 568.15 897.38 565.34 895.47C565.16 895.34 564.99 895.21 564.82 895.08C564.65 894.95 564.49 894.79 564.34 894.63C564.18 894.476 564.029 894.313 563.89 894.14C563.75 893.97 563.62 893.78 563.49 893.59C562.09 891.49 562.09 888.79 562.09 886.29C562.1 885.72 562.1 885.16 562.1 884.59H562.49C593.59 885.09 624.59 885.59 655.69 885.99C665.69 886.19 675.79 886.29 685.4 883.59C695.01 880.89 704.1 874.89 708.3 865.89L709.66 865.06C709.957 865.82 710.205 866.598 710.4 867.39Z" fill="url(#paint2_linear_38_4069)"/>
<path d="M565.34 895.47C568.15 897.38 572.31 897.35 575.89 897.19C572.3 897.43 568.14 897.41 565.34 895.47Z" fill="url(#paint3_linear_38_4069)"/>
<path d="M564.82 895.08C564.99 895.21 565.16 895.34 565.34 895.47C565.161 895.349 564.987 895.219 564.82 895.08Z" fill="url(#paint4_linear_38_4069)"/>
<path d="M563.889 894.14C564.028 894.313 564.178 894.476 564.339 894.63C564.176 894.479 564.026 894.315 563.889 894.14Z" fill="url(#paint5_linear_38_4069)"/>
<path d="M544 173.6C544.15 173.42 544.3 173.23 544.45 173.04C544.31 173.23 544.16 173.42 544 173.6Z" fill="#171717"/>
<path d="M543.07 174.73L543.92 173.7C543.65 174.04 543.36 174.39 543.07 174.73Z" fill="#171717"/>
<path d="M542.109 175.85C542.399 175.51 542.689 175.17 542.989 174.83C542.709 175.17 542.409 175.51 542.109 175.85Z" fill="#171717"/>
<path d="M541.139 176.96C541.429 176.62 541.729 176.29 542.029 175.95C541.739 176.29 541.439 176.62 541.139 176.96Z" fill="#171717"/>
<path d="M538.269 514.47C537.679 521.08 537.089 527.8 536.399 534.41C536.389 534.4 536.389 534.38 536.379 534.37C520.379 533.67 506.379 532.87 490.379 532.17H490.299L492.179 513.19L492.779 513.27C495.566 513.017 498.371 513.013 501.159 513.26C501.16 513.261 501.162 513.262 501.163 513.263C501.165 513.264 501.167 513.264 501.169 513.264C501.171 513.264 501.173 513.264 501.174 513.263C501.176 513.262 501.178 513.261 501.179 513.26C504.069 513.5 506.949 513.92 509.839 514.38C510.329 514.46 510.809 514.54 511.299 514.61C512.739 514.85 514.179 515.08 515.629 515.3C517.079 515.52 518.529 515.71 519.979 515.87C526.079 516.57 532.569 516.47 538.269 514.47Z" fill="url(#paint6_linear_38_4069)"/>
<path d="M519.979 515.87C526.179 516.47 532.679 516.37 538.279 514.37C538.279 514.4 538.269 514.44 538.269 514.47C532.569 516.47 526.079 516.57 519.979 515.87Z" fill="url(#paint7_linear_38_4069)"/>
<path d="M536.459 534.57H536.379C536.389 534.52 536.389 534.46 536.399 534.41C536.419 534.46 536.439 534.52 536.459 534.57Z" fill="#171717"/>
<path d="M527.4 171.37C526.97 171.94 526.56 172.5 526.18 173.04L526.33 172.8C526.67 172.33 527.02 171.85 527.4 171.37Z" fill="#171717"/>
<path d="M511.299 514.61C512.739 514.84 514.189 515.08 515.629 515.3C514.179 515.08 512.739 514.85 511.299 514.61Z" fill="url(#paint8_linear_38_4069)"/>
<path d="M512.479 187.54C520.225 188.056 528.005 187.721 535.679 186.54C542.328 185.455 548.86 183.748 555.189 181.44C557.246 180.69 559.14 179.553 560.769 178.09C559.12 179.602 557.19 180.774 555.089 181.54C548.756 183.836 542.225 185.543 535.579 186.64C534.919 186.74 534.249 186.84 533.579 186.93C526.558 187.925 519.45 188.163 512.379 187.64C502.449 187 490.749 185.51 483.719 191.88C490.739 185.39 502.499 186.89 512.479 187.54Z" fill="#171717"/>
<path d="M509.219 168.5C511.959 166.67 514.529 164.4 517.109 162.69C514.549 164.43 511.979 166.7 509.219 168.5Z" fill="#171717"/>
<path d="M508.68 310.35L508.61 310.45H477.73L477.68 310.35H508.68Z" fill="url(#paint9_linear_38_4069)"/>
<path d="M508.61 310.45L494.31 330.16L493.88 329.85C491.58 329.65 489.18 329.35 486.88 329.15L477.73 310.45H508.61Z" fill="url(#paint10_linear_38_4069)"/>
<path d="M528.48 791.39C530.62 803.76 533.26 816.93 538.49 828.23C533.19 816.88 530.53 803.64 528.38 791.19C522.37 755.37 515.34 725.75 506.08 696.44C515.35 725.77 522.41 755.45 528.48 791.39Z" fill="#171717"/>
<path d="M505.079 384.96L492.079 513.17V513.18L491.979 513.17L490.099 532.17H490.079L487.279 560.37L438.109 562.46L453.679 376.36H453.669L453.679 376.28L505.079 384.96ZM477.279 552.57L491.179 426.96L461.579 424.16L447.279 553.17H447.389L447.379 553.27L477.279 552.57ZM490.079 400.36C490.146 398.861 489.909 397.364 489.381 395.959C488.853 394.554 488.046 393.27 487.009 392.186C485.972 391.101 484.725 390.238 483.345 389.648C481.965 389.059 480.48 388.755 478.979 388.755C477.479 388.755 475.993 389.059 474.613 389.648C473.233 390.238 471.987 391.101 470.95 392.186C469.913 393.27 469.106 394.554 468.578 395.959C468.05 397.364 467.813 398.861 467.879 400.36C467.88 401.146 467.957 401.929 468.109 402.7C468.484 404.807 469.443 406.767 470.877 408.357C472.311 409.946 474.162 411.101 476.219 411.69C476.393 411.744 476.57 411.787 476.749 411.82C477.112 411.9 477.48 411.96 477.849 412C478.601 412.08 479.358 412.08 480.109 412C480.479 411.96 480.846 411.9 481.209 411.82C481.389 411.78 481.569 411.74 481.739 411.69C483.797 411.101 485.648 409.946 487.082 408.357C488.516 406.767 489.475 404.807 489.849 402.7C490.002 401.929 490.079 401.146 490.079 400.36Z" fill="url(#paint11_linear_38_4069)"/>
<path d="M505.08 384.96L453.68 376.28V376.26L505.08 384.96Z" fill="url(#paint12_linear_38_4069)"/>
<path d="M501.969 683.87C503.389 688.06 504.749 692.23 506.069 696.42C504.749 692.24 503.382 688.057 501.969 683.87Z" fill="#171717"/>
<path d="M501.18 513.26C504.07 513.49 506.96 513.92 509.84 514.38C506.95 513.92 504.07 513.5 501.18 513.26Z" fill="url(#paint13_linear_38_4069)"/>
<path d="M492.779 513.27C495.567 513.012 498.371 513.008 501.159 513.26C498.371 513.013 495.567 513.017 492.779 513.27Z" fill="url(#paint14_linear_38_4069)"/>
<path d="M494.77 663.59C495.72 666.15 496.65 668.7 497.56 671.24C496.65 668.7 495.72 666.15 494.77 663.59Z" fill="#171717"/>
<path d="M491.859 655.86C492.519 657.59 493.169 659.3 493.809 661.02C493.169 659.31 492.519 657.59 491.859 655.86Z" fill="#171717"/>
<path d="M492.179 513.19L490.299 532.17H490.199L492.079 513.18L492.179 513.19Z" fill="url(#paint15_linear_38_4069)"/>
<path d="M492.18 513.17V513.19L492.08 513.18V513.17L505.08 384.96L492.18 513.17Z" fill="url(#paint16_linear_38_4069)"/>
<path d="M492.08 513.18L490.2 532.17H490.1L491.98 513.17L492.08 513.18Z" fill="url(#paint17_linear_38_4069)"/>
<path d="M489.85 650.65C490.53 652.4 491.2 654.13 491.86 655.86C491.2 654.13 490.53 652.4 489.85 650.65Z" fill="#171717"/>
<path d="M536.379 534.57C520.419 533.87 506.449 533.07 490.479 532.37H490.279L490.299 532.17H490.379C506.379 532.87 520.379 533.67 536.379 534.37C536.389 534.38 536.389 534.4 536.399 534.41C536.389 534.46 536.389 534.52 536.379 534.57Z" fill="url(#paint18_linear_38_4069)"/>
<path d="M490.3 532.17L490.28 532.37H490.18L490.2 532.17H490.3Z" fill="url(#paint19_linear_38_4069)"/>
<path d="M487.48 560.57L438.09 562.67L487.28 560.57L490.18 532.37H490.28L487.48 560.57Z" fill="url(#paint20_linear_38_4069)"/>
<path d="M490.2 532.17L490.18 532.37H490.08L490.1 532.17H490.2Z" fill="url(#paint21_linear_38_4069)"/>
<path d="M487.28 560.57L438.09 562.67L438.11 562.46L487.28 560.37L490.08 532.17H490.1L490.08 532.37H490.18L487.28 560.57Z" fill="url(#paint22_linear_38_4069)"/>
<path d="M476.75 411.82C477.113 411.9 477.48 411.96 477.85 412C477.48 411.96 477.113 411.9 476.75 411.82Z" fill="url(#paint23_linear_38_4069)"/>
<path d="M477.279 552.57L447.379 553.27L447.389 553.17L477.279 552.57Z" fill="url(#paint24_linear_38_4069)"/>
<path d="M472.48 177.24C472.28 177.45 472.09 177.66 471.91 177.88C472.06 177.7 472.22 177.52 472.38 177.34C472.411 177.304 472.444 177.271 472.48 177.24Z" fill="#171717"/>
<path d="M471.909 177.88C471.729 178.09 471.549 178.31 471.379 178.54C471.549 178.31 471.719 178.09 471.909 177.88Z" fill="#171717"/>
<path d="M468.109 402.7C468.499 404.801 469.462 406.754 470.894 408.341C472.326 409.928 474.169 411.087 476.219 411.69C474.162 411.101 472.311 409.946 470.877 408.356C469.443 406.767 468.484 404.807 468.109 402.7Z" fill="url(#paint25_linear_38_4069)"/>
<path d="M470.029 180.63C469.759 181.11 469.519 181.6 469.299 182.1C469.519 181.6 469.759 181.11 470.029 180.63Z" fill="#171717"/>
<path d="M468.99 182.87C468.91 183.07 468.83 183.27 468.77 183.47C468.84 183.27 468.91 183.07 468.99 182.87Z" fill="#171717"/>
<path d="M468.22 185.23C468.14 185.5 468.08 185.77 468.01 186.05C468.08 185.77 468.15 185.5 468.22 185.23Z" fill="#171717"/>
<path d="M467.689 244.05C467.839 244.08 467.979 244.11 468.129 244.13C467.981 244.113 467.834 244.086 467.689 244.05Z" fill="#171717"/>
<path d="M466.049 243.4C466.555 243.707 467.109 243.927 467.689 244.05C467.107 243.935 466.551 243.715 466.049 243.4Z" fill="#171717"/>
<path d="M527.88 170.76C533.24 163.98 541.61 156.12 547.59 159.24C551.41 160.88 550.08 165.06 546.85 169.82C546.13 170.87 545.32 171.95 544.45 173.04C544.3 173.23 544.15 173.42 544 173.6C543.97 173.64 543.94 173.67 543.92 173.7L543.07 174.73C543.038 174.759 543.011 174.792 542.99 174.83C542.69 175.17 542.4 175.51 542.11 175.85C542.081 175.881 542.054 175.914 542.03 175.95C541.73 176.29 541.43 176.62 541.14 176.96C540.49 177.7 539.83 178.43 539.18 179.14C539.145 179.171 539.111 179.204 539.08 179.24C543.36 176.11 547.62 174.78 550.78 172.17C550.95 172.04 551.12 171.89 551.29 171.74C554.49 168.84 560.39 167.24 562.69 170.94C564.02 173.14 563.23 175.42 561.51 177.35C561.279 177.611 561.032 177.859 560.77 178.09C559.142 179.553 557.247 180.69 555.19 181.44C548.861 183.748 542.329 185.456 535.68 186.54C528.007 187.721 520.227 188.056 512.48 187.54C502.5 186.89 490.74 185.39 483.72 191.88C483.439 192.125 483.172 192.385 482.92 192.66C482.589 193.004 482.275 193.364 481.98 193.74C478.18 198.54 477.88 205.04 477.68 211.14C477.38 219.94 477.08 228.84 476.78 237.65C476.779 237.874 476.762 238.098 476.73 238.32C476.701 238.539 476.658 238.756 476.6 238.97C476.57 239.07 476.54 239.18 476.5 239.28C476.42 239.49 476.33 239.7 476.24 239.9C475.601 241.026 474.712 241.99 473.643 242.72C472.574 243.449 471.352 243.925 470.07 244.11C469.95 244.13 469.84 244.14 469.72 244.16C469.191 244.21 468.657 244.2 468.13 244.13C467.98 244.11 467.84 244.08 467.69 244.05C467.111 243.927 466.556 243.707 466.05 243.4C465.93 243.32 465.8 243.24 465.68 243.15C461.98 240.35 463.18 233.64 467.28 231.84C463.88 233.14 460.48 235.95 457.18 234.24C447.88 230.14 466.08 214.34 466.68 203.54C466.96 198.42 466.77 192.9 467.65 187.85C467.75 187.24 467.87 186.64 468.01 186.05C468.08 185.77 468.14 185.5 468.22 185.23C468.38 184.64 468.56 184.05 468.77 183.47C468.83 183.27 468.91 183.07 468.99 182.87C469.09 182.61 469.19 182.36 469.3 182.1C469.52 181.6 469.76 181.11 470.03 180.63C470.14 180.42 470.26 180.22 470.38 180.02C470.48 179.85 470.58 179.68 470.69 179.52C470.91 179.18 471.14 178.86 471.38 178.54C471.55 178.31 471.73 178.09 471.91 177.88C472.09 177.67 472.28 177.45 472.48 177.24C472.735 176.962 473.006 176.698 473.29 176.45C480.07 170.33 490.81 171.26 500.08 171.64C502.86 171.661 505.582 170.854 507.9 169.32C508.35 169.07 508.79 168.79 509.22 168.5C511.98 166.7 514.55 164.43 517.11 162.69C517.52 162.41 517.92 162.15 518.33 161.9C520.178 160.674 522.364 160.058 524.58 160.14C530.98 160.14 528.68 169.14 526.08 173.14C526.16 173.03 526.24 172.91 526.33 172.8L526.18 173.04C526.56 172.5 526.97 171.94 527.4 171.37C527.56 171.17 527.71 170.96 527.88 170.76Z" fill="#171717"/>
<path d="M453.68 376.36L438.11 562.46H438.1L453.67 376.36H453.68Z" fill="url(#paint26_linear_38_4069)"/>
<path d="M453.67 376.36L438.1 562.46L438 562.47L453.57 376.37L453.67 376.36Z" fill="url(#paint27_linear_38_4069)"/>
<path d="M443.18 398.86L405.58 389.96C405.59 389.94 405.6 389.91 405.61 389.89L443.18 398.86Z" fill="url(#paint28_linear_38_4069)"/>
<path d="M438.11 562.46L438.09 562.67H438.08L438.1 562.46H438.11Z" fill="url(#paint29_linear_38_4069)"/>
<path d="M438.1 562.46L438.08 562.67H437.98L438 562.47L438.1 562.46Z" fill="url(#paint30_linear_38_4069)"/>
<path d="M438.079 562.67H438.089L438.079 562.77L422.049 554.47L437.979 562.67H438.079Z" fill="url(#paint31_linear_38_4069)"/>
<path d="M437.879 562.47H437.999L437.979 562.67L422.049 554.47L420.879 553.87L420.799 553.83V553.82L420.879 553.67L437.879 562.47Z" fill="url(#paint32_linear_38_4069)"/>
<path d="M409.58 380.56L410.18 380.96L453.57 376.37L438 562.47H437.88L420.88 553.67L420.8 553.82L398.57 542.27L398.37 542.17L397.8 541.87L390.07 537.87L389.57 537.77V536.67C389.55 536.53 389.53 536.4 389.5 536.26C388.944 534.221 387.865 532.363 386.37 530.87C382.61 526.32 378.7 522.01 374.56 517.85C373.97 517.25 373.37 516.66 372.77 516.07L370.07 515.87L371.87 515.27C373.966 514.34 375.861 513.012 377.45 511.36C377.486 511.326 377.52 511.289 377.55 511.25C377.73 511.06 377.91 510.86 378.08 510.66L378.27 510.76L418.78 540.07L443.18 398.86L405.61 389.89C405.9 389.31 406.19 388.74 406.48 388.16C406.667 387.933 406.806 387.671 406.891 387.389C406.975 387.108 407.002 386.812 406.97 386.52C406.98 386.23 406.98 385.92 406.99 385.63C406.973 385.38 407.007 385.129 407.092 384.893C407.176 384.658 407.308 384.442 407.48 384.26C408.18 383.06 408.88 381.76 409.58 380.56Z" fill="url(#paint33_linear_38_4069)"/>
<path d="M378.079 510.66C377.909 510.86 377.729 511.06 377.549 511.25C377.729 511.06 377.899 510.86 378.069 510.66H378.079Z" fill="url(#paint34_linear_38_4069)"/>
<path d="M374.559 517.85C378.699 522.01 382.609 526.32 386.369 530.87C382.609 526.41 378.689 522.02 374.559 517.85Z" fill="url(#paint35_linear_38_4069)"/>
<path d="M372.77 516.07C373.37 516.66 373.97 517.25 374.56 517.85C373.97 517.25 373.37 516.66 372.77 516.07Z" fill="url(#paint36_linear_38_4069)"/>
<path d="M332.57 510.36C333.165 511.397 333.906 512.344 334.77 513.17L334.07 513.37C333.856 514.092 333.689 514.827 333.57 515.57L333.45 515.55L332.97 515.47L322.57 508.46L322.58 508.43L324.97 495.26V494.96C326.859 494.877 328.752 494.944 330.63 495.16V495.18C330.585 495.255 330.564 495.342 330.57 495.43V495.46C330.28 496.827 330.093 498.215 330.01 499.61C329.962 500.422 329.959 501.237 330 502.05C330.14 504.993 331.024 507.852 332.57 510.36Z" fill="url(#paint37_linear_38_4069)"/>
<path d="M330.669 495.16C330.661 495.16 330.654 495.162 330.647 495.165C330.64 495.169 330.634 495.174 330.629 495.18V495.16H330.669Z" fill="url(#paint38_linear_38_4069)"/>
<path d="M330.57 495.46V495.56C330.285 496.894 330.097 498.248 330.01 499.61C330.092 498.215 330.28 496.827 330.57 495.46Z" fill="url(#paint39_linear_38_4069)"/>
<path d="M404.88 334.45C460.65 349.32 481.36 334.66 485.94 330.42C481.57 334.54 460.98 349.54 404.78 334.55C399.17 333.05 393.67 331.65 388.17 330.25C336.74 317.3 289.79 310.96 260.91 346.58C289.37 311.27 335.47 317.02 386.12 329.61C386.83 329.79 387.55 329.97 388.27 330.15C393.77 331.55 399.27 332.95 404.88 334.45Z" fill="url(#paint40_linear_38_4069)"/>
<path d="M268.97 398.86L240.66 405.86L240.67 405.83L268.87 398.86C268.87 398.86 300.03 352.35 363.52 349.49C300.1 352.4 268.97 398.86 268.97 398.86Z" fill="url(#paint41_linear_38_4069)"/>
<path d="M215.82 658.16C215.63 658.04 215.44 657.93 215.26 657.82C215.44 657.93 215.63 658.04 215.82 658.16Z" fill="url(#paint42_linear_38_4069)"/>
<path d="M203.46 655.28C205.944 654.799 208.511 654.986 210.9 655.82C203.42 660.11 196.94 665.9 190.56 671.58C180.46 680.48 170.46 689.38 160.36 698.28C156.66 701.58 152.96 704.78 149.96 708.68C146.858 712.517 144.823 717.105 144.06 721.98C143.698 727.262 144.953 732.529 147.66 737.08C150.26 741.68 153.86 745.48 157.66 749.18L157.83 749.76C156.327 750.281 154.705 750.357 153.16 749.98C151.577 749.419 150.185 748.424 149.14 747.11C148.95 746.9 148.77 746.67 148.59 746.44C148.16 745.89 147.76 745.33 147.36 744.78C144.46 740.68 141.46 736.68 138.56 732.58C138.27 732.18 137.98 731.78 137.69 731.37C137.38 730.93 137.08 730.47 136.78 730.01C136.64 729.8 136.51 729.58 136.38 729.37C136.25 729.16 136.12 728.94 135.99 728.72C135.76 728.32 135.54 727.92 135.34 727.52C134.06 725.265 133.607 722.633 134.06 720.08C134.76 716.88 137.26 714.48 139.56 712.18L190.86 663.28C194.56 659.78 198.46 656.18 203.46 655.28Z" fill="url(#paint43_linear_38_4069)"/>
<path d="M207.759 690.38C212.149 681.4 217.539 671.82 225.009 665.62L225.059 665.68C217.559 671.88 212.159 681.48 207.759 690.48C202.359 701.61 197.169 713.02 196.539 724.82C197.139 712.99 202.339 701.54 207.759 690.38Z" fill="url(#paint44_linear_38_4069)"/>
<path d="M196.759 731.98C196.895 733.395 197.128 734.798 197.459 736.18C198.339 740.16 199.549 742.93 201.269 744.89C199.489 742.93 198.249 740.13 197.359 736.08C197.079 734.75 196.879 733.42 196.689 732.09L196.759 732.08C196.659 731.23 196.589 730.38 196.549 729.53C196.599 730.34 196.659 731.16 196.759 731.98Z" fill="#171717"/>
<path d="M196.549 729.53C196.589 730.38 196.659 731.23 196.759 732.08L196.689 732.09L196.659 731.88C195.059 717.48 201.259 703.68 207.659 690.28C212.049 681.3 217.439 671.71 224.919 665.51L225.009 665.62C217.539 671.82 212.149 681.4 207.759 690.38C202.339 701.54 197.139 712.99 196.539 724.82C196.448 726.389 196.451 727.962 196.549 729.53Z" fill="url(#paint45_linear_38_4069)"/>
<path d="M195.959 732.18C184.559 737.58 173.059 742.98 161.659 748.38C159.059 749.68 156.059 750.88 153.259 750.08C151.611 749.541 150.171 748.503 149.139 747.11C150.184 748.424 151.577 749.419 153.159 749.98C154.705 750.357 156.326 750.28 157.829 749.76L157.659 749.18C153.859 745.48 150.259 741.68 147.659 737.08C144.953 732.529 143.697 727.262 144.059 721.98C144.822 717.105 146.857 712.517 149.959 708.68C152.959 704.78 156.659 701.58 160.359 698.28C170.459 689.38 180.459 680.48 190.559 671.58C196.939 665.9 203.419 660.11 210.899 655.82C211.389 655.98 211.879 656.16 212.369 656.36C212.939 656.6 213.509 656.87 214.069 657.16C214.469 657.37 214.859 657.59 215.259 657.82C215.439 657.93 215.629 658.04 215.819 658.16C218.073 659.584 220.206 661.189 222.199 662.96C222.409 663.14 222.609 663.32 222.809 663.5C223.399 664.03 223.989 664.55 224.559 665.08L224.919 665.51C217.439 671.71 212.049 681.3 207.659 690.28C201.259 703.68 195.059 717.48 196.659 731.88L196.689 732.09L195.959 732.18Z" fill="url(#paint46_linear_38_4069)"/>
<path d="M136.379 729.37C136.509 729.58 136.639 729.8 136.779 730.01C136.639 729.8 136.499 729.59 136.379 729.37Z" fill="url(#paint47_linear_38_4069)"/>
<path d="M135.99 728.72C136.12 728.94 136.25 729.15 136.38 729.37C136.24 729.16 136.11 728.94 135.99 728.72Z" fill="url(#paint48_linear_38_4069)"/>
<path d="M510.08 286.65C507.08 281.25 508.88 275.45 512.38 270.45C515.88 265.45 520.88 261.65 524.88 257.05C532.78 247.85 536.58 235.65 537.58 223.54C538.58 211.43 537.08 199.34 535.68 187.24" stroke="#171717" stroke-width="2.956" stroke-linecap="round" stroke-linejoin="round"/>
<path d="M467.279 231.84C463.179 233.64 461.979 240.35 465.679 243.15C465.799 243.24 465.929 243.32 466.049 243.4C466.555 243.707 467.109 243.927 467.689 244.05C467.839 244.08 467.979 244.11 468.129 244.13C468.656 244.2 469.189 244.21 469.719 244.16C469.839 244.15 469.959 244.13 470.069 244.11C471.353 243.935 472.579 243.463 473.65 242.733C474.721 242.002 475.607 241.032 476.239 239.9C476.34 239.7 476.427 239.492 476.499 239.28C476.539 239.18 476.569 239.07 476.599 238.97C476.656 238.756 476.7 238.539 476.729 238.32C476.761 238.098 476.777 237.874 476.779 237.65V237.15" stroke="#171717" stroke-width="2.956" stroke-linecap="round" stroke-linejoin="round"/>
<path d="M468.379 231.54C467.979 231.64 467.679 231.74 467.279 231.84" stroke="#171717" stroke-width="2.956" stroke-linecap="round" stroke-linejoin="round"/>
<path d="M475.28 287.15V286.95C475.78 270.55 476.28 254.05 476.88 237.65C477.18 228.74 477.48 219.94 477.78 211.04C477.98 204.94 478.38 198.34 482.08 193.64C482.35 193.3 482.63 192.97 482.92 192.66C483.172 192.385 483.439 192.124 483.72 191.88C490.74 185.39 502.5 186.89 512.48 187.54C520.227 188.056 528.006 187.721 535.68 186.54C542.329 185.455 548.861 183.748 555.19 181.44C557.247 180.69 559.141 179.553 560.77 178.09C561.031 177.858 561.278 177.611 561.51 177.35C563.3 175.4 564.14 173.08 562.79 170.84C560.49 167.14 554.59 168.74 551.39 171.64C551.19 171.82 550.99 172 550.78 172.17C547.64 174.71 543.5 176.05 539.18 179.14C539.83 178.43 540.49 177.7 541.14 176.96C541.43 176.62 541.73 176.29 542.03 175.95C542.054 175.914 542.08 175.881 542.11 175.85C542.4 175.51 542.69 175.17 542.99 174.83C543.011 174.792 543.038 174.759 543.07 174.73L543.92 173.7C543.94 173.67 543.97 173.64 544 173.6C544.15 173.42 544.3 173.23 544.45 173.04C545.32 171.95 546.13 170.87 546.85 169.82C550.13 165.05 551.53 160.85 547.69 159.14C541.67 156 533.17 163.96 527.88 170.76C527.71 170.96 527.56 171.17 527.4 171.37C526.97 171.94 526.56 172.5 526.18 173.04L526.33 172.8C528.86 168.69 530.86 160.04 524.68 160.04C522.419 159.966 520.194 160.618 518.33 161.9C517.92 162.15 517.52 162.41 517.11 162.69C514.55 164.43 511.98 166.7 509.22 168.5C508.79 168.79 508.35 169.07 507.9 169.32C505.595 170.79 502.914 171.561 500.18 171.54C490.86 171.16 480.07 170.22 473.29 176.45C473.005 176.698 472.735 176.961 472.48 177.24C472.28 177.45 472.09 177.66 471.91 177.88C471.73 178.1 471.55 178.31 471.38 178.54C471.14 178.86 470.91 179.18 470.69 179.52C470.58 179.68 470.48 179.85 470.38 180.02C470.26 180.22 470.14 180.42 470.03 180.63C469.76 181.11 469.52 181.6 469.3 182.1C469.19 182.36 469.09 182.61 468.99 182.87C468.91 183.07 468.83 183.27 468.77 183.47C468.56 184.05 468.38 184.64 468.22 185.23C468.14 185.5 468.08 185.77 468.01 186.05C467.87 186.64 467.75 187.24 467.65 187.85C466.79 192.84 467 198.31 466.78 203.44C466.18 214.24 447.98 230.04 457.28 234.14C460.58 235.85 463.98 233.04 467.38 231.74" stroke="#171717" stroke-width="2.956" stroke-linecap="round" stroke-linejoin="round"/>
<path d="M457.579 303.35C456.879 300.25 456.379 298.95 456.779 295.75C457.179 292.55 458.779 289.35 461.779 287.95C463.824 287.198 466.006 286.891 468.179 287.05H475.379C486.949 287.05 498.509 287.15 510.079 287.15H513.579C518.679 287.15 523.979 287.25 528.479 289.75C532.839 292.23 536.019 297.75 534.029 302.33C534.017 302.372 534 302.412 533.979 302.45" stroke="#171717" stroke-width="2.956" stroke-linecap="round" stroke-linejoin="round"/>
<path d="M457.08 303.85H457.68C483.08 304.75 508.78 305.55 533.88 302.35C533.93 302.34 533.98 302.34 534.03 302.33C540.48 301.53 546.84 300.44 553.19 299.05C593.762 290.042 630.383 268.279 657.69 236.95C664.89 228.64 672.29 219.14 683 216.64C683.894 216.433 684.799 216.272 685.71 216.16C685.77 216.15 685.84 216.15 685.9 216.14C688.828 215.862 691.782 216.116 694.62 216.89C694.68 216.91 694.74 216.92 694.8 216.94C701.499 218.904 707.301 223.149 711.2 228.94L711.26 229.03C711.965 230.098 712.613 231.203 713.2 232.34C718.6 243.35 717.3 256.75 712.3 267.95C707.2 279.15 698.7 288.35 689.6 296.55C649.49 332.55 596.69 351.35 543.59 361.25C543.49 361.27 543.39 361.28 543.29 361.3C541.09 361.68 538.88 362.07 536.78 362.45" stroke="#171717" stroke-width="2.956" stroke-linecap="round" stroke-linejoin="round"/>
<path d="M685.599 215.24C686.999 212.44 686.299 209.04 684.899 206.24C683.499 203.44 681.499 200.94 680.199 198.14C678.899 195.34 678.289 191.84 679.789 189.14C681.599 185.94 685.399 184.84 689.099 184.24C689.559 184.131 690.027 184.064 690.499 184.04C694.699 183.44 699.099 182.84 703.199 183.74C703.219 183.74 703.239 183.75 703.259 183.75C704.13 183.926 704.981 184.191 705.799 184.54C707.97 185.289 709.81 186.775 710.999 188.74C711.579 189.721 711.893 190.837 711.911 191.977C711.928 193.117 711.649 194.241 711.099 195.24C709.599 197.64 706.399 198.44 703.499 198.54C702.099 198.54 700.599 198.54 699.199 198.64C697.801 198.62 696.411 198.857 695.099 199.34" stroke="#171717" stroke-width="2.956" stroke-linecap="round" stroke-linejoin="round"/>
<path d="M710.8 229.04H711.1C711.15 229.04 711.21 229.03 711.26 229.03C725.9 227.99 739.95 234.67 753.1 241.25C772.6 250.95 792.2 260.75 811.7 270.45C825.71 221.24 839.68 172.07 853.61 122.94C854.074 121.761 854.144 120.463 853.81 119.24C853.207 118.17 852.303 117.301 851.21 116.74C835.81 107.34 820.21 97.84 803.6 90.63C786.99 83.42 769 78.73 750.9 79.23C744.8 79.43 738.2 80.33 733.6 84.33C729 88.33 727.2 94.63 725.6 100.54L710.3 157.54C710.29 157.59 710.27 157.65 710.26 157.7C707.97 166.25 705.69 174.69 703.4 183.14" stroke="#171717" stroke-width="2.956" stroke-linecap="round" stroke-linejoin="round"/>
<path d="M699.2 198.64C697.04 204.547 695.505 210.663 694.62 216.89C694.61 216.94 694.61 216.99 694.6 217.04C694.6 217.24 694.5 217.44 694.5 217.64" stroke="#171717" stroke-width="2.956" stroke-linecap="round" stroke-linejoin="round"/>
<path d="M689.099 183.74C688.795 177.717 690.599 171.777 694.199 166.94C697.817 162.109 703.022 158.71 708.899 157.34" stroke="#171717" stroke-width="2.956" stroke-linecap="round" stroke-linejoin="round"/>
<path d="M543.289 361.15V361.35C548.888 400.076 552.493 439.064 554.089 478.16C554.589 489.46 554.189 502.36 545.889 509.96C543.675 511.95 541.088 513.483 538.279 514.47H538.269C532.569 516.47 526.079 516.57 519.979 515.87C518.529 515.71 517.079 515.51 515.629 515.3C514.179 515.09 512.739 514.85 511.299 514.61C510.809 514.54 510.329 514.46 509.839 514.38C506.949 513.92 504.069 513.5 501.179 513.26C501.178 513.261 501.176 513.262 501.175 513.263C501.173 513.264 501.171 513.264 501.169 513.264C501.167 513.264 501.166 513.264 501.164 513.263C501.162 513.262 501.161 513.261 501.159 513.26C498.371 513.013 495.567 513.017 492.779 513.27" stroke="#171717" stroke-width="2.956" stroke-linecap="round" stroke-linejoin="round"/>
<path d="M538.38 514.47C537.78 521.17 537.08 527.87 536.48 534.57H536.38C520.42 533.87 506.45 533.07 490.48 532.37" stroke="#171717" stroke-width="2.956" stroke-linecap="round" stroke-linejoin="round"/>
<path d="M536.479 534.57C570.989 624.67 604.889 712.78 639.389 802.89C643.589 813.79 647.689 826.29 642.389 836.59C641.707 837.896 640.904 839.134 639.989 840.29C633.989 847.89 623.289 851.29 613.489 853.59C596.589 857.49 577.789 859.99 562.289 853.19C560.231 852.301 558.257 851.23 556.389 849.99C549.309 845.41 544.139 839.06 540.239 831.73C539.619 830.59 539.049 829.42 538.489 828.23C533.259 816.93 530.619 803.76 528.479 791.39C522.409 755.45 515.349 725.77 506.079 696.44C506.078 696.432 506.075 696.425 506.069 696.42C504.749 692.23 503.389 688.06 501.969 683.87C500.549 679.68 499.079 675.47 497.559 671.24C496.649 668.7 495.719 666.15 494.769 663.59C494.449 662.73 494.129 661.87 493.809 661.02C493.169 659.3 492.519 657.59 491.859 655.86C491.199 654.13 490.529 652.4 489.849 650.65C486.149 641.11 482.159 631.31 477.859 621.07C477.837 621.002 477.81 620.935 477.779 620.87C476.679 618.17 475.479 615.47 474.279 612.67" stroke="#171717" stroke-width="2.956" stroke-linecap="round" stroke-linejoin="round"/>
<path d="M420.379 554.87C415.379 575.07 410.379 595.37 401.469 614.07C392.569 632.87 379.369 650.17 361.369 660.48C332.469 677.08 296.069 673.28 264.269 663.48C255.559 660.78 246.359 657.68 237.459 659.48C232.886 660.459 228.626 662.555 225.059 665.58C225.039 665.59 225.029 665.61 225.009 665.62C217.539 671.82 212.149 681.4 207.759 690.38C202.339 701.54 197.139 712.99 196.539 724.82C196.447 726.389 196.451 727.962 196.549 729.53C196.599 730.34 196.659 731.16 196.759 731.98C196.895 733.394 197.129 734.798 197.459 736.18C198.339 740.16 199.549 742.93 201.269 744.89C201.556 745.216 201.867 745.52 202.199 745.8C207.589 750.59 217.349 749.34 235.459 750.68C350.569 759.18 429.679 735.88 461.379 674.78C470.059 658.11 474.259 639.64 477.859 621.07C477.869 621.04 477.869 621 477.879 620.97C479.279 613.57 480.679 606.07 482.179 598.77" stroke="#171717" stroke-width="2.956" stroke-linecap="round" stroke-linejoin="round"/>
<path d="M370.07 350.15C365.035 357.461 360.905 365.355 357.77 373.66C356.97 375.66 356.27 377.66 355.57 379.66C353.67 385.06 351.97 390.46 350.27 395.96C342.47 429.26 336.57 460.66 330.67 494.96C330.674 494.998 330.667 495.036 330.65 495.07C330.648 495.101 330.641 495.131 330.63 495.16V495.18C330.598 495.26 330.578 495.344 330.57 495.43V495.46C330.279 496.827 330.092 498.215 330.01 499.61C329.961 500.422 329.958 501.237 330 502.05C330.156 504.958 331.04 507.781 332.57 510.26C333.167 511.296 333.908 512.242 334.77 513.07C339.27 517.27 346.47 517.37 352.27 518.17C358.47 519.07 364.67 517.57 370.17 515.77L371.97 515.17C374.021 514.258 375.881 512.966 377.45 511.36C377.486 511.326 377.519 511.289 377.55 511.25C377.73 511.06 377.91 510.86 378.08 510.66C378.11 510.63 378.14 510.59 378.17 510.56C378.552 510.102 378.906 509.621 379.23 509.12C379.246 509.102 379.26 509.082 379.27 509.06C382.27 504.66 383.47 499.06 384.77 493.46C390.26 459.7 389.77 426.03 402.94 395.36C402.95 395.33 402.97 395.29 402.98 395.26C403.729 393.419 404.577 391.62 405.52 389.87C405.54 389.83 405.56 389.8 405.58 389.76L406.48 387.96C406.824 387.562 407 387.045 406.97 386.52C406.98 386.23 406.98 385.92 406.99 385.63C406.956 385.348 406.982 385.063 407.066 384.792C407.151 384.522 407.292 384.272 407.48 384.06C408.18 382.86 408.88 381.56 409.58 380.36C415.615 370.907 423.03 362.409 431.58 355.15" stroke="#171717" stroke-width="2.956" stroke-linecap="round" stroke-linejoin="round"/>
<path d="M457.579 304.05C437.871 303.841 418.512 309.252 401.769 319.65C397.055 322.565 392.575 325.841 388.369 329.45" stroke="#171717" stroke-width="2.956" stroke-linecap="round" stroke-linejoin="round"/>
<path d="M526.279 200.14C521.714 199.442 517.096 199.141 512.479 199.24C511.508 199.176 510.539 199.384 509.679 199.84C508.379 200.84 508.379 202.74 508.479 204.34C509.179 212.54 509.879 220.84 510.579 229.04C510.804 230.418 510.667 231.831 510.179 233.14C509.746 233.945 509.115 234.625 508.344 235.117C507.574 235.609 506.691 235.896 505.779 235.95C503.958 236.053 502.133 235.85 500.379 235.35" stroke="#171717" stroke-width="2.956" stroke-linecap="round" stroke-linejoin="round"/>
<path d="M516.58 210.64C516.623 210.562 516.673 210.489 516.73 210.42C516.78 210.34 516.84 210.26 516.89 210.19C516.94 210.12 516.98 210.08 517.02 210.02" stroke="#171717" stroke-width="2.956" stroke-linecap="round" stroke-linejoin="round"/>
<path d="M517.019 210.02C516.979 210.07 516.929 210.13 516.889 210.19" stroke="#171717" stroke-width="2.956" stroke-linecap="round" stroke-linejoin="round"/>
<path d="M517.02 210.02C517.098 209.92 517.185 209.826 517.28 209.74" stroke="#171717" stroke-width="2.956" stroke-linecap="round" stroke-linejoin="round"/>
<path d="M524.979 210.84C524.619 210.049 524.044 209.377 523.318 208.899C522.593 208.421 521.748 208.158 520.879 208.14C520.203 208.153 519.536 208.301 518.917 208.576C518.299 208.85 517.742 209.246 517.279 209.74" stroke="#171717" stroke-width="2.956" stroke-linecap="round" stroke-linejoin="round"/>
<path d="M496.98 209.74C496.745 208.784 496.229 207.92 495.498 207.261C494.767 206.601 493.855 206.176 492.88 206.04C491.922 205.934 490.955 206.115 490.1 206.56C489.245 207.005 488.542 207.694 488.08 208.54" stroke="#171717" stroke-width="2.956" stroke-linecap="round" stroke-linejoin="round"/>
<path d="M495.879 248.85C494.955 249.315 493.923 249.525 492.89 249.457C491.857 249.39 490.861 249.048 490.005 248.467C489.149 247.886 488.463 247.087 488.019 246.152C487.575 245.217 487.389 244.181 487.479 243.15" stroke="#171717" stroke-width="2.956" stroke-linecap="round" stroke-linejoin="round"/>
<path d="M224.559 665.08C223.989 664.55 223.399 664.03 222.809 663.5C222.609 663.32 222.399 663.14 222.199 662.96C220.207 661.189 218.073 659.584 215.819 658.16C215.629 658.04 215.439 657.93 215.259 657.82C214.859 657.59 214.469 657.37 214.069 657.16C213.509 656.87 212.939 656.6 212.369 656.36C211.889 656.15 211.409 655.97 210.929 655.8C208.502 654.944 205.894 654.73 203.359 655.18C198.359 656.08 194.459 659.78 190.759 663.18L139.459 712.08C137.059 714.28 134.659 716.78 133.959 719.98C133.51 722.577 133.999 725.25 135.339 727.52C135.539 727.92 135.759 728.32 135.989 728.72C136.119 728.94 136.249 729.15 136.379 729.37C136.509 729.59 136.639 729.8 136.779 730.01C137.079 730.47 137.379 730.93 137.689 731.37C137.949 731.75 138.199 732.12 138.459 732.48C141.359 736.58 144.359 740.58 147.259 744.68C147.689 745.27 148.129 745.87 148.589 746.44C148.769 746.67 148.949 746.9 149.139 747.11C150.184 748.424 151.577 749.419 153.159 749.98C154.705 750.357 156.326 750.281 157.829 749.76C159.103 749.347 160.349 748.852 161.559 748.28C172.959 742.88 184.459 737.48 195.859 732.08" stroke="#171717" stroke-width="2.956" stroke-linecap="round" stroke-linejoin="round"/>
<path d="M562.29 852.49V853.29C562.19 864.29 562.09 875.29 562.09 886.29C562.09 888.79 562.09 891.49 563.49 893.59C563.62 893.78 563.75 893.97 563.89 894.14C564.029 894.313 564.18 894.476 564.34 894.63C564.49 894.79 564.66 894.94 564.82 895.08C564.98 895.22 565.16 895.34 565.34 895.47C568.15 897.38 572.31 897.35 575.89 897.19C599.058 895.68 622.296 895.55 645.48 896.8C645.519 896.808 645.56 896.812 645.6 896.81C649.07 897 652.533 897.227 655.99 897.49C664.09 898.09 672.19 898.89 680.3 898.09C688.41 897.29 696.5 894.69 702.6 889.29C708.7 883.89 712.3 875.29 710.4 867.39C710.205 866.598 709.957 865.819 709.66 865.06C708.654 862.549 707.185 860.249 705.33 858.28C704.587 857.485 703.795 856.737 702.96 856.04C699.752 853.382 696.066 851.363 692.1 850.09C685.23 847.88 678.01 847.55 670.8 847.27C669.19 847.22 667.59 847.16 665.99 847.09C657.19 846.69 648.09 845.59 640.69 840.89" stroke="#171717" stroke-width="2.956" stroke-linecap="round" stroke-linejoin="round"/>
<path d="M389.969 537.77L397.799 541.87L398.369 542.17L398.419 542.2L398.569 542.27L420.799 553.83L420.879 553.87L422.049 554.47L437.979 562.67L437.999 562.47L453.569 376.37L453.579 376.26L453.679 376.28L505.079 384.96L492.079 513.17V513.18L490.199 532.17L490.179 532.37L487.279 560.57L438.089 562.67H438.079H437.979" stroke="#171717" stroke-width="2.956" stroke-linecap="round" stroke-linejoin="round"/>
<path d="M453.58 376.26L410.08 380.86" stroke="#171717" stroke-width="2.956" stroke-linecap="round" stroke-linejoin="round"/>
<path d="M405.08 389.76L405.48 389.86L405.52 389.87L405.61 389.89L443.18 398.86L418.78 540.07L378.27 510.76" stroke="#171717" stroke-width="2.956" stroke-linecap="round" stroke-linejoin="round"/>
<path d="M403.18 395.46L433.78 400.26L417.08 527.57L379.27 509.16L379.23 509.12L379.17 509.06" stroke="#171717" stroke-width="2.956" stroke-linecap="round" stroke-linejoin="round"/>
<path d="M353.97 379.16C348.07 375.86 340.27 379.16 336.27 384.56C332.27 389.96 330.97 396.86 329.87 403.56C325.17 431.96 320.37 460.26 315.67 488.66C315.17 491.46 314.77 494.36 314.27 497.16C317.663 495.852 321.239 495.076 324.87 494.86C326.772 494.777 328.678 494.844 330.57 495.06" stroke="#171717" stroke-width="2.956" stroke-linecap="round" stroke-linejoin="round"/>
<path d="M314.769 488.46C312.769 488.46 310.869 488.46 308.969 488.36C313.369 451.56 318.635 414.827 324.769 378.16C334.76 372.412 346.603 370.797 357.769 373.66H357.969" stroke="#171717" stroke-width="2.956" stroke-linecap="round" stroke-linejoin="round"/>
<path d="M372.77 516.07C373.37 516.66 373.97 517.25 374.56 517.85C378.7 522.01 382.61 526.32 386.37 530.87C387.68 532.46 389.08 534.23 389.5 536.26C389.53 536.4 389.55 536.53 389.57 536.67V537.77C389.328 539.391 388.578 540.894 387.428 542.062C386.278 543.23 384.787 544.003 383.17 544.27C379.57 544.87 376.37 542.57 374.67 539.37C372.97 536.17 372.77 533.77 372.27 530.47" stroke="#171717" stroke-width="2.956" stroke-linecap="round" stroke-linejoin="round"/>
<path d="M351.469 546.17H351.069C343.969 546.27 337.469 541.07 334.669 534.57C332.079 528.59 332.169 521.93 333.449 515.55C333.459 515.52 333.459 515.5 333.469 515.47C333.669 514.77 333.769 513.97 333.969 513.27" stroke="#171717" stroke-width="2.956" stroke-linecap="round" stroke-linejoin="round"/>
<path d="M345.07 530.97C346.098 535.61 348.11 539.975 350.97 543.77C351.4 544.35 351.84 544.92 352.3 545.46C353.581 547.001 355.011 548.412 356.57 549.67C361.87 553.87 369.57 555.17 375.67 552.07" stroke="#171717" stroke-width="2.956" stroke-linecap="round" stroke-linejoin="round"/>
<path d="M359.17 531.57C359.17 540.27 366.97 548.57 375.47 551.37C375.54 551.37 375.62 551.43 375.74 551.45C375.782 551.462 375.826 551.469 375.87 551.47C379.96 552.794 384.379 552.683 388.397 551.156C392.415 549.628 395.792 546.776 397.97 543.07" stroke="#171717" stroke-width="2.956" stroke-linecap="round" stroke-linejoin="round"/>
<path d="M324.869 495.16L322.469 508.36L322.579 508.43L332.869 515.37" stroke="#171717" stroke-width="2.956" stroke-linecap="round" stroke-linejoin="round"/>
<path d="M447.389 553.17L447.379 553.27L477.279 552.57L491.179 426.96L461.579 424.26L447.389 553.17Z" stroke="#171717" stroke-width="2.956" stroke-linecap="round" stroke-linejoin="round"/>
<path d="M468.11 402.7C467.957 401.929 467.88 401.146 467.88 400.36C467.813 398.861 468.051 397.363 468.579 395.959C469.106 394.554 469.913 393.27 470.951 392.186C471.988 391.101 473.234 390.238 474.614 389.648C475.994 389.059 477.479 388.755 478.98 388.755C480.481 388.755 481.966 389.059 483.346 389.648C484.726 390.238 485.972 391.101 487.01 392.186C488.047 393.27 488.854 394.554 489.382 395.959C489.909 397.363 490.147 398.861 490.08 400.36C490.08 401.146 490.003 401.929 489.85 402.7C489.461 404.801 488.497 406.754 487.065 408.341C485.634 409.928 483.791 411.087 481.74 411.69C481.57 411.74 481.39 411.78 481.21 411.82C480.847 411.9 480.48 411.96 480.11 412C479.359 412.08 478.601 412.08 477.85 412C477.48 411.96 477.113 411.9 476.75 411.82C476.571 411.787 476.394 411.744 476.22 411.69C474.162 411.101 472.311 409.946 470.878 408.356C469.444 406.767 468.485 404.807 468.11 402.7V402.7Z" stroke="#171717" stroke-width="2.956" stroke-linecap="round" stroke-linejoin="round"/>
<path d="M744.199 104.54C774.141 106.872 803.415 114.596 830.609 127.34" stroke="#171717" stroke-width="2.956" stroke-linecap="round" stroke-linejoin="round"/>
<path d="M738.699 130.04C767.113 132.646 794.808 140.441 820.409 153.04" stroke="#171717" stroke-width="2.956" stroke-linecap="round" stroke-linejoin="round"/>
<path d="M731.299 157.04C756.47 156.42 781.29 163.05 802.799 176.14" stroke="#171717" stroke-width="2.956" stroke-linecap="round" stroke-linejoin="round"/>
<path d="M249.359 469.26C246.959 479.76 238.659 488.06 229.159 492.96C219.659 497.96 208.959 500.06 198.459 502.16C187.959 504.26 177.259 506.56 167.859 511.66C172.731 528.649 176.571 545.917 179.359 563.37C179.559 564.87 210.559 558.67 213.459 557.97C224.794 555.153 235.868 551.372 246.559 546.67C254.759 543.07 265.769 539.07 271.469 531.57C277.369 523.87 272.869 515.77 269.069 508.16C262.459 495.36 255.859 482.26 249.359 469.26Z" stroke="#171717" stroke-width="2.956" stroke-linecap="round" stroke-linejoin="round"/>
<path d="M186.359 453.26C176.559 451.26 166.559 449.26 157.459 444.86C148.459 440.56 140.259 433.56 136.459 424.26C142.059 415.06 147.659 405.76 153.259 396.56C151.459 399.56 171.659 410.56 173.959 411.46C182.459 414.86 190.659 415.06 199.559 415.26C198.159 427.66 190.559 441.46 186.359 453.26Z" stroke="#171717" stroke-width="2.956" stroke-linecap="round" stroke-linejoin="round"/>
<path d="M90.6495 501.56C79.6316 511.074 70.8842 522.934 65.0495 536.27C63.6495 539.57 62.3495 543.17 62.8495 546.67C63.6495 552.07 68.2495 556.07 72.9495 559.07C76.2495 561.17 79.2495 562.67 81.8495 564.97C82.1224 565.2 82.4447 565.363 82.7911 565.448C83.1376 565.533 83.499 565.537 83.8472 565.46C84.1954 565.382 84.5211 565.226 84.799 565.002C85.0769 564.778 85.2995 564.494 85.4495 564.17C87.3495 559.67 91.8495 553.07 92.6495 551.27C95.7091 545.156 99.4676 539.418 103.849 534.17C112.149 524.37 114.549 525.37 108.649 518.77C103.149 512.67 96.5495 507.26 90.6495 501.56Z" stroke="#171717" stroke-width="2.956" stroke-linecap="round" stroke-linejoin="round"/>
<path d="M431.579 354.95C477.979 357.45 492.379 348.55 493.879 330.85L508.679 310.45H477.579L486.879 329.45C486.879 329.45 486.769 329.59 486.539 329.84C486.389 329.99 486.189 330.19 485.939 330.42C481.569 334.54 460.979 349.54 404.779 334.55C399.169 333.05 393.669 331.65 388.169 330.25C336.739 317.3 289.789 310.96 260.909 346.58C260.299 347.33 259.689 348.11 259.089 348.91C255.935 353.145 253.148 357.641 250.759 362.35L240.559 405.86L240.669 405.83L268.869 398.86C268.869 398.86 300.029 352.35 363.519 349.49C365.669 349.39 367.852 349.343 370.069 349.35C372.319 349.35 374.612 349.407 376.949 349.52C380.839 349.72 384.845 350.097 388.969 350.65C405.479 352.95 419.579 354.25 431.579 354.95Z" stroke="#171717" stroke-width="2.956" stroke-linecap="round" stroke-linejoin="round"/>
<path d="M335.63 212.97C331.882 222.764 324.474 230.717 314.97 235.15C303.37 240.25 290.07 239.15 277.37 237.75C264.67 236.35 251.56 234.75 239.66 239.15C227.76 243.45 217.56 255.85 220.36 268.25" stroke="#171717" stroke-width="2.956" stroke-linecap="round" stroke-linejoin="round"/>
<path d="M335.629 212.97C334.677 213.04 333.72 213.03 332.769 212.94C326.569 212.34 320.569 206.94 320.669 200.64C320.769 194.34 328.769 189.14 333.969 192.74C338.269 195.64 338.469 201.84 337.469 206.84C337.027 208.931 336.411 210.981 335.629 212.97V212.97Z" stroke="#171717" stroke-width="2.956" stroke-linecap="round" stroke-linejoin="round"/>
<path d="M345.069 157.44C349.669 155.84 355.069 157.94 358.269 161.64C361.469 165.34 362.769 170.34 363.069 175.24C363.362 181.09 362.337 186.93 360.069 192.331C357.802 197.731 354.35 202.553 349.969 206.44C345.909 209.91 340.839 212.59 335.629 212.97" stroke="#171717" stroke-width="2.956" stroke-linecap="round" stroke-linejoin="round"/>
<path d="M730.09 420.59C731.422 419.555 732.663 418.407 733.8 417.16C746.3 403.36 745.6 379.56 732.3 366.45" stroke="#171717" stroke-width="2.956" stroke-linecap="round" stroke-linejoin="round"/>
<path d="M730.089 420.59C729.239 414.67 726.559 408.7 721.599 405.46C716.399 402.06 708.299 402.76 704.899 408.06C700.899 414.46 706.399 423.66 713.699 425.26C719.389 426.51 725.329 424.29 730.089 420.59Z" stroke="#171717" stroke-width="2.956" stroke-linecap="round" stroke-linejoin="round"/>
<path d="M630.99 489.56C631.49 476.16 641.59 463.66 654.59 460.36C669.29 456.56 684.9 463.76 699.9 461.36C718.1 458.46 732.3 439.76 730.2 421.46C730.17 421.17 730.13 420.88 730.09 420.59" stroke="#171717" stroke-width="2.956" stroke-linecap="round" stroke-linejoin="round"/>
<path d="M576.59 111.44C576.64 107.93 576.69 104.45 576.74 100.96C576.79 97.49 576.84 94.02 576.89 90.53" stroke="#171717" stroke-width="2.956" stroke-linecap="round" stroke-linejoin="round"/>
<path d="M567.09 102.54C570.31 102 573.52 101.48 576.74 100.96C580.02 100.43 583.31 99.8998 586.59 99.3398" stroke="#171717" stroke-width="2.956" stroke-linecap="round" stroke-linejoin="round"/>
<path d="M525.779 130.94C524.459 128.82 523.136 126.7 521.809 124.58C520.809 123 519.799 121.42 518.779 119.84" stroke="#171717" stroke-width="2.956" stroke-linecap="round" stroke-linejoin="round"/>
<path d="M516.479 129.44C518.259 127.82 520.029 126.2 521.809 124.58C523.429 123.1 525.059 121.62 526.679 120.14" stroke="#171717" stroke-width="2.956" stroke-linecap="round" stroke-linejoin="round"/>
<path d="M592.59 159.14C593.43 157.32 594.26 155.5 595.1 153.68C595.96 151.8 596.83 149.92 597.69 148.04" stroke="#171717" stroke-width="2.956" stroke-linecap="round" stroke-linejoin="round"/>
<path d="M600.089 157.24C598.439 156.06 596.769 154.87 595.099 153.68C593.519 152.55 591.939 151.41 590.389 150.24" stroke="#171717" stroke-width="2.956" stroke-linecap="round" stroke-linejoin="round"/>
<path d="M191.46 551.97L184.26 520.47" stroke="#171717" stroke-width="2.956" stroke-linecap="round" stroke-linejoin="round"/>
<path d="M200.759 550.17C199.659 545.57 198.659 540.87 197.559 536.27" stroke="#171717" stroke-width="2.956" stroke-linecap="round" stroke-linejoin="round"/>
<path d="M220.66 546.37C218.66 537.37 216.66 528.47 214.66 519.47" stroke="#171717" stroke-width="2.956" stroke-linecap="round" stroke-linejoin="round"/>
<path d="M162.66 438.86C163.463 435.346 165.229 432.126 167.76 429.56" stroke="#171717" stroke-width="2.956" stroke-linecap="round" stroke-linejoin="round"/>
<path d="M152.359 435.06C154.964 428.167 158.46 421.644 162.759 415.66" stroke="#171717" stroke-width="2.956" stroke-linecap="round" stroke-linejoin="round"/>
<path d="M97.7488 528.77C95.2257 524.897 91.9219 521.593 88.0488 519.07" stroke="#171717" stroke-width="2.956" stroke-linecap="round" stroke-linejoin="round"/>
<path d="M92.2488 535.77C91.1488 534.37 90.0488 532.97 89.0488 531.57" stroke="#171717" stroke-width="2.956" stroke-linecap="round" stroke-linejoin="round"/>
<path d="M467.18 539.97C469.48 507.36 473.38 474.76 478.88 442.56" stroke="#171717" stroke-width="2.956" stroke-linecap="round" stroke-linejoin="round"/>
<path d="M405.08 505.16C409.78 475.46 414.58 445.76 419.28 416.06" stroke="#171717" stroke-width="2.956" stroke-linecap="round" stroke-linejoin="round"/>
<path d="M397.07 473.16C400.17 453.66 403.18 434.16 406.28 414.76" stroke="#171717" stroke-width="2.956" stroke-linecap="round" stroke-linejoin="round"/>
<path d="M680.1 277.85C681.3 273.25 682.5 268.55 683.8 263.95" stroke="#171717" stroke-width="2.956" stroke-linecap="round" stroke-linejoin="round"/>
<path d="M655.289 267.55C652.289 266.55 649.289 265.45 646.389 264.45L646.889 264.95" stroke="#171717" stroke-width="2.956" stroke-linecap="round" stroke-linejoin="round"/>
<path d="M627.99 314.55C629.69 310.55 631.29 306.45 632.99 302.45" stroke="#171717" stroke-width="2.956" stroke-linecap="round" stroke-linejoin="round"/>
<path d="M603.789 303.35C601.202 301.95 598.328 301.163 595.389 301.05" stroke="#171717" stroke-width="2.956" stroke-linecap="round" stroke-linejoin="round"/>
<path d="M579.09 339.55L583.29 330.25" stroke="#171717" stroke-width="2.956" stroke-linecap="round" stroke-linejoin="round"/>
<path d="M550.789 323.95C547.789 322.55 544.689 321.25 541.689 319.85" stroke="#171717" stroke-width="2.956" stroke-linecap="round" stroke-linejoin="round"/>
<path d="M507.279 355.85C508.615 352.122 510.768 348.739 513.579 345.95" stroke="#171717" stroke-width="2.956" stroke-linecap="round" stroke-linejoin="round"/>
<path d="M532.179 399.66C529.579 398.06 526.979 396.56 524.379 394.96" stroke="#171717" stroke-width="2.956" stroke-linecap="round" stroke-linejoin="round"/>
<path d="M510.18 434.26C511.88 431.56 513.48 428.96 515.18 426.26" stroke="#171717" stroke-width="2.956" stroke-linecap="round" stroke-linejoin="round"/>
<path d="M541.59 468.06C539.28 465.56 536.98 463.16 534.58 460.66" stroke="#171717" stroke-width="2.956" stroke-linecap="round" stroke-linejoin="round"/>
<path d="M504.879 498.66C506.879 496.16 508.779 493.66 510.779 491.16" stroke="#171717" stroke-width="2.956" stroke-linecap="round" stroke-linejoin="round"/>
<path d="M459.98 369.65C457.929 368.084 456.227 366.109 454.98 363.85" stroke="#171717" stroke-width="2.956" stroke-linecap="round" stroke-linejoin="round"/>
<path d="M440.879 326.55C442.579 324.05 444.279 321.55 445.979 319.15" stroke="#171717" stroke-width="2.956" stroke-linecap="round" stroke-linejoin="round"/>
<path d="M395.47 377.16C394.67 374.26 393.87 371.25 393.17 368.35" stroke="#171717" stroke-width="2.956" stroke-linecap="round" stroke-linejoin="round"/>
<path d="M357.07 406.36C359.57 404.16 361.97 402.06 364.47 399.86" stroke="#171717" stroke-width="2.956" stroke-linecap="round" stroke-linejoin="round"/>
<path d="M381.07 445.36C378.397 442.387 376.264 438.968 374.77 435.26" stroke="#171717" stroke-width="2.956" stroke-linecap="round" stroke-linejoin="round"/>
<path d="M344.57 490.36C346.866 486.566 349.583 483.043 352.67 479.86" stroke="#171717" stroke-width="2.956" stroke-linecap="round" stroke-linejoin="round"/>
<path d="M373.37 477.26L369.17 472.16" stroke="#171717" stroke-width="2.956" stroke-linecap="round" stroke-linejoin="round"/>
<path d="M734.5 63.23L733.9 35.03" stroke="#171717" stroke-width="2.956" stroke-linecap="round" stroke-linejoin="round"/>
<path d="M710.099 65.1299C697.799 49.5299 685.599 34.0299 673.289 18.4299" stroke="#171717" stroke-width="2.956" stroke-linecap="round" stroke-linejoin="round"/>
<path d="M702.7 90.0299C693.7 87.5299 684.6 85.0299 675.59 82.6299" stroke="#171717" stroke-width="2.956" stroke-linecap="round" stroke-linejoin="round"/>
<path d="M807 287.35C817 290.05 828.61 283.05 830.81 272.85" stroke="#171717" stroke-width="2.956" stroke-linecap="round" stroke-linejoin="round"/>
<path d="M615.889 367.35C641.625 361.278 664.981 347.705 682.999 328.35" stroke="#171717" stroke-width="2.956" stroke-linecap="round" stroke-linejoin="round"/>
<path d="M343.67 768.18C366.102 769.898 388.402 763.472 406.48 750.08" stroke="#171717" stroke-width="2.956" stroke-linecap="round" stroke-linejoin="round"/>
<path d="M376.17 781.28C381.37 778.88 386.67 776.48 391.87 774.08" stroke="#171717" stroke-width="2.956" stroke-linecap="round" stroke-linejoin="round"/>
<path d="M185.059 735.18C180.238 728.953 177.984 721.117 178.759 713.28" stroke="#171717" stroke-width="2.956" stroke-linecap="round" stroke-linejoin="round"/>
<path d="M171.559 740.38C169.108 738.862 167.128 736.693 165.839 734.115C164.55 731.537 164.003 728.651 164.259 725.78" stroke="#171717" stroke-width="2.956" stroke-linecap="round" stroke-linejoin="round"/>
<path d="M670.889 847.09L670.799 847.27C670.789 847.309 670.772 847.346 670.749 847.38C669.813 849.422 668.748 851.403 667.559 853.31C664.377 858.488 660.367 863.109 655.689 866.99" stroke="#171717" stroke-width="2.956" stroke-linecap="round" stroke-linejoin="round"/>
<path d="M652.59 846.09C647.025 853.394 639.789 859.258 631.49 863.19" stroke="#171717" stroke-width="2.956" stroke-linecap="round" stroke-linejoin="round"/>
<path d="M562.49 884.59C593.59 885.09 624.59 885.59 655.69 885.99C665.69 886.19 675.79 886.29 685.4 883.59C695.01 880.89 704.1 874.89 708.3 865.89" stroke="#171717" stroke-width="2.956" stroke-linecap="round" stroke-linejoin="round"/>
<path d="M210.959 655.78C210.949 655.79 210.939 655.79 210.929 655.8C210.919 655.81 210.909 655.81 210.899 655.82C203.419 660.11 196.939 665.9 190.559 671.58C180.459 680.48 170.459 689.38 160.359 698.28C156.659 701.58 152.959 704.78 149.959 708.68C146.857 712.517 144.822 717.105 144.059 721.98C143.697 727.262 144.953 732.529 147.659 737.08C150.259 741.68 153.859 745.48 157.659 749.18" stroke="#171717" stroke-width="2.956" stroke-linecap="round" stroke-linejoin="round"/>
<path d="M486.879 329.15C489.179 329.35 491.579 329.65 493.879 329.85" stroke="#171717" stroke-width="2.956" stroke-linecap="round" stroke-linejoin="round"/>
<path fill-rule="evenodd" clip-rule="evenodd" d="M431.58 354.85C477.98 357.35 492.38 348.45 493.88 330.75L494.31 330.16L493.88 329.85C492.73 329.75 491.555 329.625 490.38 329.5C489.205 329.375 488.03 329.25 486.88 329.15L486.98 329.35C486.98 329.35 486.84 329.53 486.54 329.84C486.39 329.99 486.19 330.19 485.94 330.42C481.57 334.54 460.98 349.54 404.78 334.55C399.171 333.05 393.671 331.65 388.172 330.25L388.17 330.25C336.74 317.3 289.79 310.96 260.91 346.58C260.3 347.33 259.69 348.11 259.09 348.91C255.978 353.118 253.225 357.581 250.86 362.25L240.67 405.83L268.87 398.86C268.87 398.86 300.03 352.35 363.52 349.49C365.667 349.387 367.85 349.34 370.07 349.35C372.317 349.353 374.61 349.41 376.95 349.52C380.87 349.703 384.91 350.08 389.07 350.65C405.58 352.85 419.68 354.25 431.58 354.85ZM292.785 334.294C324.784 327.281 358.155 330.113 388.514 342.42C389.27 342.726 390.132 342.362 390.438 341.605C390.745 340.849 390.38 339.987 389.624 339.68C358.713 327.15 324.733 324.265 292.152 331.406C291.355 331.581 290.85 332.369 291.025 333.166C291.2 333.964 291.988 334.469 292.785 334.294Z" fill="url(#paint49_linear_38_4069)"/>
<g opacity="0.1">
<path d="M503.907 186.1C501.251 185.419 498.483 185.287 495.775 185.713C493.066 186.138 490.472 187.112 488.153 188.575C482.463 192.2 479.337 196.87 477.353 203.284C475.072 210.672 474.835 218.675 474.3 226.342C473.713 234.749 473.363 243.169 473.313 251.596C473.268 259.383 473.796 267.172 473.735 274.952C473.712 277.821 473.6 280.252 470.954 281.685C468.482 283.026 465.515 283.376 463.02 284.762C460.559 286.111 458.529 288.125 457.16 290.574C455.4 293.787 455.671 297.266 454.597 300.633C452.959 305.77 442.972 304.321 438.537 304.999C422.281 307.612 406.921 314.192 393.815 324.157C387.802 328.657 393.684 338.921 399.777 334.357C414.533 323.303 430.918 318.363 448.952 315.857C456.029 314.875 463.475 312.62 466.304 305.357C467.435 302.457 466.758 297.557 469.418 295.704C472.118 293.828 476.003 293.635 478.86 291.804C486.389 286.989 486.57 278.038 486.307 270.054C485.987 260.335 485.988 250.618 486.24 240.898C486.501 230.785 487.122 220.697 488.104 210.632C488.904 202.475 491.646 188.812 502.682 190.521C505.533 190.963 506.818 186.928 503.904 186.092L503.907 186.1Z" fill="#171717"/>
</g>
<g opacity="0.1">
<path d="M374.842 345.935C360.474 351.971 355.806 372.052 352.55 385.601C348.016 404.467 343.882 423.438 339.934 442.434C336.017 461.278 332.094 480.218 330.645 499.446C329.964 508.021 330.778 516.649 333.051 524.946C335.051 532.396 335.6 538.908 340.924 544.971C344.474 549.014 350.356 543.094 346.824 539.071C341.875 533.435 340.917 524.821 342.479 517.691C344.134 510.136 344.185 502.401 344.948 494.661C346.685 477.041 350.534 459.667 354.177 442.366C357.747 425.413 361.389 408.472 365.254 391.583C366.713 384.529 368.685 377.591 371.154 370.824C372.472 367.436 374.139 364.269 375.712 361C377.241 357.82 379.376 355.01 380.605 351.706C381.769 348.578 378.061 344.586 374.839 345.939L374.842 345.935Z" fill="#171717"/>
</g>
<g opacity="0.1">
<path d="M535.014 363.11C542.706 362.203 550.459 361.579 558.025 359.876C565.954 357.99 573.781 355.699 581.475 353.011C596.362 347.932 610.95 342.015 625.169 335.289C639.545 328.563 653.723 321.275 667.4 313.214C680.164 305.691 692.755 296.975 702.381 285.577C707.771 279.308 712.173 272.254 715.436 264.658C718.396 257.629 720.744 248.705 717.812 241.345C716.512 238.084 711.612 236.56 709.673 240.281C705.802 247.72 704.59 256.202 700.625 263.681C696.727 270.885 691.663 277.394 685.639 282.943C672.22 295.558 655.427 304.106 639.293 312.677C622.743 321.613 605.657 329.515 588.131 336.339C579.383 339.675 570.506 342.677 561.504 345.252C552.222 347.906 543.071 351.004 533.668 353.162C528.226 354.411 529.268 363.783 535.014 363.106V363.11Z" fill="#171717"/>
</g>
</g>
<defs>
<linearGradient id="paint0_linear_38_4069" x1="635.88" y1="840.39" x2="635.88" y2="886.079" gradientUnits="userSpaceOnUse">
<stop stop-color="#FFDD33"/>
<stop offset="1" stop-color="#E89A00"/>
</linearGradient>
<linearGradient id="paint1_linear_38_4069" x1="221.089" y1="469.26" x2="221.089" y2="563.603" gradientUnits="userSpaceOnUse">
<stop stop-color="#FFDD33"/>
<stop offset="1" stop-color="#E89A00"/>
</linearGradient>
<linearGradient id="paint2_linear_38_4069" x1="636.499" y1="865.06" x2="636.499" y2="898.427" gradientUnits="userSpaceOnUse">
<stop stop-color="#FFDD33"/>
<stop offset="1" stop-color="#E89A00"/>
</linearGradient>
<linearGradient id="paint3_linear_38_4069" x1="570.615" y1="895.47" x2="570.615" y2="897.295" gradientUnits="userSpaceOnUse">
<stop stop-color="#FFDD33"/>
<stop offset="1" stop-color="#E89A00"/>
</linearGradient>
<linearGradient id="paint4_linear_38_4069" x1="565.08" y1="895.08" x2="565.08" y2="895.47" gradientUnits="userSpaceOnUse">
<stop stop-color="#FFDD33"/>
<stop offset="1" stop-color="#E89A00"/>
</linearGradient>
<linearGradient id="paint5_linear_38_4069" x1="564.114" y1="894.14" x2="564.114" y2="894.63" gradientUnits="userSpaceOnUse">
<stop stop-color="#FFDD33"/>
<stop offset="1" stop-color="#E89A00"/>
</linearGradient>
<linearGradient id="paint6_linear_38_4069" x1="514.284" y1="513.077" x2="514.284" y2="534.41" gradientUnits="userSpaceOnUse">
<stop stop-color="#FFDD33"/>
<stop offset="1" stop-color="#E89A00"/>
</linearGradient>
<linearGradient id="paint7_linear_38_4069" x1="529.129" y1="514.37" x2="529.129" y2="516.264" gradientUnits="userSpaceOnUse">
<stop stop-color="#FFDD33"/>
<stop offset="1" stop-color="#E89A00"/>
</linearGradient>
<linearGradient id="paint8_linear_38_4069" x1="513.464" y1="514.61" x2="513.464" y2="515.3" gradientUnits="userSpaceOnUse">
<stop stop-color="#FFDD33"/>
<stop offset="1" stop-color="#E89A00"/>
</linearGradient>
<linearGradient id="paint9_linear_38_4069" x1="493.18" y1="310.35" x2="493.18" y2="310.45" gradientUnits="userSpaceOnUse">
<stop stop-color="#FFDD33"/>
<stop offset="1" stop-color="#E89A00"/>
</linearGradient>
<linearGradient id="paint10_linear_38_4069" x1="493.17" y1="310.45" x2="493.17" y2="330.16" gradientUnits="userSpaceOnUse">
<stop stop-color="#FFDD33"/>
<stop offset="1" stop-color="#E89A00"/>
</linearGradient>
<linearGradient id="paint11_linear_38_4069" x1="471.594" y1="376.28" x2="471.594" y2="562.46" gradientUnits="userSpaceOnUse">
<stop stop-color="#FFDD33"/>
<stop offset="1" stop-color="#E89A00"/>
</linearGradient>
<linearGradient id="paint12_linear_38_4069" x1="479.38" y1="376.26" x2="479.38" y2="384.96" gradientUnits="userSpaceOnUse">
<stop stop-color="#FFDD33"/>
<stop offset="1" stop-color="#E89A00"/>
</linearGradient>
<linearGradient id="paint13_linear_38_4069" x1="505.51" y1="513.26" x2="505.51" y2="514.38" gradientUnits="userSpaceOnUse">
<stop stop-color="#FFDD33"/>
<stop offset="1" stop-color="#E89A00"/>
</linearGradient>
<linearGradient id="paint14_linear_38_4069" x1="496.969" y1="513.074" x2="496.969" y2="513.27" gradientUnits="userSpaceOnUse">
<stop stop-color="#FFDD33"/>
<stop offset="1" stop-color="#E89A00"/>
</linearGradient>
<linearGradient id="paint15_linear_38_4069" x1="491.189" y1="513.18" x2="491.189" y2="532.17" gradientUnits="userSpaceOnUse">
<stop stop-color="#FFDD33"/>
<stop offset="1" stop-color="#E89A00"/>
</linearGradient>
<linearGradient id="paint16_linear_38_4069" x1="498.58" y1="384.96" x2="498.58" y2="513.19" gradientUnits="userSpaceOnUse">
<stop stop-color="#FFDD33"/>
<stop offset="1" stop-color="#E89A00"/>
</linearGradient>
<linearGradient id="paint17_linear_38_4069" x1="491.09" y1="513.17" x2="491.09" y2="532.17" gradientUnits="userSpaceOnUse">
<stop stop-color="#FFDD33"/>
<stop offset="1" stop-color="#E89A00"/>
</linearGradient>
<linearGradient id="paint18_linear_38_4069" x1="513.339" y1="532.17" x2="513.339" y2="534.57" gradientUnits="userSpaceOnUse">
<stop stop-color="#FFDD33"/>
<stop offset="1" stop-color="#E89A00"/>
</linearGradient>
<linearGradient id="paint19_linear_38_4069" x1="490.24" y1="532.17" x2="490.24" y2="532.37" gradientUnits="userSpaceOnUse">
<stop stop-color="#FFDD33"/>
<stop offset="1" stop-color="#E89A00"/>
</linearGradient>
<linearGradient id="paint20_linear_38_4069" x1="464.185" y1="532.37" x2="464.185" y2="562.67" gradientUnits="userSpaceOnUse">
<stop stop-color="#FFDD33"/>
<stop offset="1" stop-color="#E89A00"/>
</linearGradient>
<linearGradient id="paint21_linear_38_4069" x1="490.14" y1="532.17" x2="490.14" y2="532.37" gradientUnits="userSpaceOnUse">
<stop stop-color="#FFDD33"/>
<stop offset="1" stop-color="#E89A00"/>
</linearGradient>
<linearGradient id="paint22_linear_38_4069" x1="464.135" y1="532.17" x2="464.135" y2="562.67" gradientUnits="userSpaceOnUse">
<stop stop-color="#FFDD33"/>
<stop offset="1" stop-color="#E89A00"/>
</linearGradient>
<linearGradient id="paint23_linear_38_4069" x1="477.3" y1="411.82" x2="477.3" y2="412" gradientUnits="userSpaceOnUse">
<stop stop-color="#FFDD33"/>
<stop offset="1" stop-color="#E89A00"/>
</linearGradient>
<linearGradient id="paint24_linear_38_4069" x1="462.329" y1="552.57" x2="462.329" y2="553.27" gradientUnits="userSpaceOnUse">
<stop stop-color="#FFDD33"/>
<stop offset="1" stop-color="#E89A00"/>
</linearGradient>
<linearGradient id="paint25_linear_38_4069" x1="472.164" y1="402.7" x2="472.164" y2="411.69" gradientUnits="userSpaceOnUse">
<stop stop-color="#FFDD33"/>
<stop offset="1" stop-color="#E89A00"/>
</linearGradient>
<linearGradient id="paint26_linear_38_4069" x1="445.89" y1="376.36" x2="445.89" y2="562.46" gradientUnits="userSpaceOnUse">
<stop stop-color="#FFDD33"/>
<stop offset="1" stop-color="#E89A00"/>
</linearGradient>
<linearGradient id="paint27_linear_38_4069" x1="445.835" y1="376.36" x2="445.835" y2="562.47" gradientUnits="userSpaceOnUse">
<stop stop-color="#FFDD33"/>
<stop offset="1" stop-color="#E89A00"/>
</linearGradient>
<linearGradient id="paint28_linear_38_4069" x1="424.38" y1="389.89" x2="424.38" y2="398.86" gradientUnits="userSpaceOnUse">
<stop stop-color="#FFDD33"/>
<stop offset="1" stop-color="#E89A00"/>
</linearGradient>
<linearGradient id="paint29_linear_38_4069" x1="438.095" y1="562.46" x2="438.095" y2="562.67" gradientUnits="userSpaceOnUse">
<stop stop-color="#FFDD33"/>
<stop offset="1" stop-color="#E89A00"/>
</linearGradient>
<linearGradient id="paint30_linear_38_4069" x1="438.04" y1="562.46" x2="438.04" y2="562.67" gradientUnits="userSpaceOnUse">
<stop stop-color="#FFDD33"/>
<stop offset="1" stop-color="#E89A00"/>
</linearGradient>
<linearGradient id="paint31_linear_38_4069" x1="430.069" y1="554.47" x2="430.069" y2="562.77" gradientUnits="userSpaceOnUse">
<stop stop-color="#FFDD33"/>
<stop offset="1" stop-color="#E89A00"/>
</linearGradient>
<linearGradient id="paint32_linear_38_4069" x1="429.399" y1="553.67" x2="429.399" y2="562.67" gradientUnits="userSpaceOnUse">
<stop stop-color="#FFDD33"/>
<stop offset="1" stop-color="#E89A00"/>
</linearGradient>
<linearGradient id="paint33_linear_38_4069" x1="411.82" y1="376.37" x2="411.82" y2="562.47" gradientUnits="userSpaceOnUse">
<stop stop-color="#FFDD33"/>
<stop offset="1" stop-color="#E89A00"/>
</linearGradient>
<linearGradient id="paint34_linear_38_4069" x1="377.814" y1="510.66" x2="377.814" y2="511.25" gradientUnits="userSpaceOnUse">
<stop stop-color="#FFDD33"/>
<stop offset="1" stop-color="#E89A00"/>
</linearGradient>
<linearGradient id="paint35_linear_38_4069" x1="380.464" y1="517.85" x2="380.464" y2="530.87" gradientUnits="userSpaceOnUse">
<stop stop-color="#FFDD33"/>
<stop offset="1" stop-color="#E89A00"/>
</linearGradient>
<linearGradient id="paint36_linear_38_4069" x1="373.665" y1="516.07" x2="373.665" y2="517.85" gradientUnits="userSpaceOnUse">
<stop stop-color="#FFDD33"/>
<stop offset="1" stop-color="#E89A00"/>
</linearGradient>
<linearGradient id="paint37_linear_38_4069" x1="328.67" y1="494.925" x2="328.67" y2="515.57" gradientUnits="userSpaceOnUse">
<stop stop-color="#FFDD33"/>
<stop offset="1" stop-color="#E89A00"/>
</linearGradient>
<linearGradient id="paint38_linear_38_4069" x1="330.649" y1="495.16" x2="330.649" y2="495.18" gradientUnits="userSpaceOnUse">
<stop stop-color="#FFDD33"/>
<stop offset="1" stop-color="#E89A00"/>
</linearGradient>
<linearGradient id="paint39_linear_38_4069" x1="330.29" y1="495.46" x2="330.29" y2="499.61" gradientUnits="userSpaceOnUse">
<stop stop-color="#FFDD33"/>
<stop offset="1" stop-color="#E89A00"/>
</linearGradient>
<linearGradient id="paint40_linear_38_4069" x1="373.425" y1="319.879" x2="373.425" y2="346.58" gradientUnits="userSpaceOnUse">
<stop stop-color="#FFDD33"/>
<stop offset="1" stop-color="#E89A00"/>
</linearGradient>
<linearGradient id="paint41_linear_38_4069" x1="302.09" y1="349.49" x2="302.09" y2="405.86" gradientUnits="userSpaceOnUse">
<stop stop-color="#FFDD33"/>
<stop offset="1" stop-color="#E89A00"/>
</linearGradient>
<linearGradient id="paint42_linear_38_4069" x1="215.54" y1="657.82" x2="215.54" y2="658.16" gradientUnits="userSpaceOnUse">
<stop stop-color="#FFDD33"/>
<stop offset="1" stop-color="#E89A00"/>
</linearGradient>
<linearGradient id="paint43_linear_38_4069" x1="172.394" y1="655.019" x2="172.394" y2="750.216" gradientUnits="userSpaceOnUse">
<stop stop-color="#FFDD33"/>
<stop offset="1" stop-color="#E89A00"/>
</linearGradient>
<linearGradient id="paint44_linear_38_4069" x1="210.799" y1="665.62" x2="210.799" y2="724.82" gradientUnits="userSpaceOnUse">
<stop stop-color="#FFDD33"/>
<stop offset="1" stop-color="#E89A00"/>
</linearGradient>
<linearGradient id="paint45_linear_38_4069" x1="210.707" y1="665.51" x2="210.707" y2="732.09" gradientUnits="userSpaceOnUse">
<stop stop-color="#FFDD33"/>
<stop offset="1" stop-color="#E89A00"/>
</linearGradient>
<linearGradient id="paint46_linear_38_4069" x1="184.459" y1="655.82" x2="184.459" y2="750.338" gradientUnits="userSpaceOnUse">
<stop stop-color="#FFDD33"/>
<stop offset="1" stop-color="#E89A00"/>
</linearGradient>
<linearGradient id="paint47_linear_38_4069" x1="136.579" y1="729.37" x2="136.579" y2="730.01" gradientUnits="userSpaceOnUse">
<stop stop-color="#FFDD33"/>
<stop offset="1" stop-color="#E89A00"/>
</linearGradient>
<linearGradient id="paint48_linear_38_4069" x1="136.185" y1="728.72" x2="136.185" y2="729.37" gradientUnits="userSpaceOnUse">
<stop stop-color="#FFDD33"/>
<stop offset="1" stop-color="#E89A00"/>
</linearGradient>
<linearGradient id="paint49_linear_38_4069" x1="367.49" y1="320.003" x2="367.49" y2="405.83" gradientUnits="userSpaceOnUse">
<stop stop-color="#FFDD33"/>
<stop offset="1" stop-color="#E89A00"/>
</linearGradient>
<clipPath id="clip0_38_4069">
<rect width="960" height="960" fill="white"/>
</clipPath>
</defs>
</svg>
