<svg width="960" height="960" viewBox="0 0 960 960" fill="none" xmlns="http://www.w3.org/2000/svg">
<g clip-path="url(#clip0_46_7767)">
<g clip-path="url(#clip1_46_7767)">
<path fill-rule="evenodd" clip-rule="evenodd" d="M530.527 771.954C514.839 753.383 511.347 725.273 522.239 703.5L522.028 703.391C522.039 703.368 522.039 703.334 522.05 703.313L520.421 702.803C501.983 709.561 483.4 716.365 464 719.423C454.633 720.956 445.117 721.387 435.649 720.707C425.494 720.032 415.539 717.568 406.242 713.427C381.843 702.269 364.49 677.627 360.89 651.034C360.801 650.369 360.712 649.693 360.646 649.028C357.788 623.056 367.483 596.176 385.433 577.15C403.848 557.638 430.386 546.414 457.2 545.361L425.465 646.181L425.498 647.588C479.777 646.448 533.898 645.066 588.049 643.682C604.391 643.264 620.735 642.847 637.087 642.436L637.032 640.054C636.245 637.705 609.719 553.617 609.719 553.617C650.417 558.869 692.389 550.171 728.998 531.623C765.607 513.075 796.954 484.975 821.718 452.255C847.1 418.715 865.966 379.698 872.481 338.141C878.996 296.584 872.592 252.474 851.063 216.341C846.753 209.095 841.401 201.826 833.534 198.757C831.274 197.887 828.894 197.371 826.476 197.228C817.851 196.674 808.843 200.408 800.876 204.452C794.028 207.926 786.959 212.026 782.15 217.826C780.435 219.866 779.041 222.156 778.017 224.618C773.659 235.267 777.552 246.971 781.265 258.133C781.809 259.769 782.35 261.393 782.859 263C795.933 304.255 788.054 350.91 764.841 387.431C741.628 423.952 704.049 450.389 662.714 463.176C621.379 475.963 577.651 475.597 535.579 465.492L535.235 465.503C535.408 471.3 537.121 477.012 538.827 482.698C539.426 484.695 540.024 486.689 540.554 488.683C542.917 497.62 543.944 506.858 543.601 516.096C543.48 519.098 542.771 522.722 539.945 523.73C537.187 524.705 534.384 522.478 532.445 520.295C518.24 504.284 513.764 482.068 510.894 460.86C510.772 460 510.661 459.135 510.55 458.26L509.963 458.338C472.157 463.579 434.706 473.463 400.778 490.958C366.85 508.453 336.512 533.849 316.324 566.237C300.623 591.412 291.393 620.941 291.238 650.503C291.174 658.987 291.894 667.458 293.388 675.81C300.158 713.372 324.069 748.209 358.296 765.084C372.213 771.943 387.26 775.754 402.639 778.07C413.165 779.655 423.857 780.541 434.45 781.217C467.092 783.322 500.666 783.666 531.635 773.228C531.258 772.807 530.882 772.386 530.527 771.954ZM837.911 213.641C837.402 212.877 836.37 212.67 835.606 213.18C834.842 213.689 834.636 214.72 835.145 215.484C858.627 250.717 863.916 296.113 855.783 337.884C847.648 379.656 827.131 418.191 802.6 453.213C802.073 453.965 802.256 455.001 803.007 455.528C803.759 456.054 804.796 455.872 805.322 455.12C829.991 419.902 850.787 380.927 859.045 338.519C867.304 296.11 861.991 249.77 837.911 213.641Z" fill="url(#paint0_linear_46_7767)"/>
<path fill-rule="evenodd" clip-rule="evenodd" d="M505.775 350.67C527.482 347.36 547.776 337.861 564.224 323.313L567.076 324.049C573.621 332.185 578.39 341.603 581.075 351.694C583.76 361.785 584.302 372.327 582.666 382.641L583.942 382.852C598.656 368.57 609.283 349.667 611.842 329.301C614.401 308.935 608.418 287.259 594.324 272.359C575.753 252.724 545.548 247.195 519.288 253.511C493.028 259.827 470.291 276.425 451.222 295.561C447.374 299.42 443.606 303.424 439.832 307.434C425.835 322.304 411.753 337.266 393.217 345.312C378.454 351.718 362.281 353.083 346.12 354.446C340.169 354.948 334.219 355.45 328.342 356.204C285.971 361.645 244.434 381.999 219.234 416.492C208.059 431.794 200.428 449.215 192.793 466.644C185.561 483.152 178.327 499.667 168.076 514.397C140.109 554.596 89.4626 577.776 40.7626 572.69L40.6846 573.41C100.798 603.814 175.056 592.18 223.798 545.687C234.794 535.196 244.322 523.2 253.829 511.231C267.399 494.147 280.927 477.116 298.623 464.587C314.515 453.37 332.986 446.352 352.318 444.187C369.687 442.273 387.078 444.342 404.496 446.414C413.097 447.437 421.703 448.461 430.318 449.007C456.379 450.658 484.933 446.869 503.426 428.442L505.786 427.921C503.592 417.805 500.426 408.021 495.226 399.079L493.808 398.27C503.625 384.863 508.323 367.611 505.841 351.146L505.775 350.67ZM559.665 260.587C531.063 252.055 500.581 266.116 478.096 284.766C468.176 292.994 459.118 302.207 450.135 311.344L450.134 311.345C448.933 312.566 447.733 313.786 446.533 315.002C436.329 325.343 426.068 335.422 414.47 343.887C413.729 344.428 413.567 345.468 414.108 346.21C414.649 346.951 415.689 347.113 416.43 346.572C428.266 337.933 438.692 327.681 448.899 317.337C450.104 316.116 451.307 314.893 452.507 313.672C461.504 304.523 470.437 295.438 480.218 287.325C502.399 268.927 531.717 255.719 558.715 263.772C572.927 268.012 584.886 277.699 591.984 290.721C599.082 303.743 600.743 319.043 596.604 333.285C596.348 334.166 596.855 335.089 597.736 335.345C598.618 335.601 599.54 335.094 599.796 334.212C604.18 319.128 602.42 302.923 594.903 289.13C587.385 275.338 574.718 265.077 559.665 260.587Z" fill="#171717"/>
<path d="M741.452 688.685C744.61 691.101 743.214 696.085 741.474 699.666C734.903 713.129 727.414 726.124 719.059 738.559L718.35 738.083C717.268 735.507 715.462 733.301 713.151 731.732C710.84 730.163 708.124 729.297 705.331 729.241L704.544 728.664C713.032 717.042 721.52 705.422 730.007 693.806C731.268 691.825 732.91 690.116 734.838 688.776C736.842 687.566 739.59 687.266 741.452 688.685Z" fill="url(#paint1_linear_46_7767)"/>
<path d="M718.349 738.081L719.058 738.557C714.858 744.817 710.441 750.933 705.806 756.906C701.861 762.006 694.606 769.183 688.343 762.79C681.916 756.253 690.515 747.854 694.404 742.535C697.783 737.915 701.163 733.291 704.542 728.662L705.329 729.238C708.122 729.295 710.839 730.16 713.15 731.73C715.461 733.299 717.267 735.506 718.349 738.081Z" fill="url(#paint2_linear_46_7767)"/>
<path d="M542.151 383.324C543.381 385.219 546.472 385.163 548.079 383.568C548.823 382.706 549.333 381.668 549.562 380.553C549.791 379.437 549.73 378.282 549.386 377.197C548.672 375.039 547.633 373.003 546.306 371.158C544.98 369.309 544.065 367.197 543.625 364.964" stroke="#171717" stroke-width="3.324" stroke-linecap="round" stroke-linejoin="round"/>
<path d="M533.275 404.388C531.567 405.144 529.677 405.394 527.83 405.107C525.984 404.821 524.259 404.009 522.86 402.77" stroke="#171717" stroke-width="3.324" stroke-linecap="round" stroke-linejoin="round"/>
<path d="M495.227 399.08C500.427 408.022 503.593 417.806 505.787 427.922C507.959 437.872 509.211 448.144 510.551 458.26C510.662 459.135 510.773 460 510.895 460.86C513.765 482.068 518.241 504.284 532.446 520.295C534.385 522.478 537.188 524.705 539.946 523.73C542.772 522.722 543.481 519.098 543.602 516.096C543.944 506.858 542.917 497.62 540.555 488.683C538.516 481.015 535.469 473.337 535.236 465.504C535.192 464.177 535.236 462.848 535.369 461.526C536.255 452.883 541.208 445.16 547.025 438.7C552.842 432.24 559.625 426.7 565.307 420.118C576.784 406.835 583.246 389.95 583.568 372.398C583.889 354.846 578.052 337.736 567.069 324.041" stroke="#171717" stroke-width="3.324" stroke-linecap="round" stroke-linejoin="round"/>
<path d="M564.477 352.831C562.389 351.31 559.839 350.561 557.261 350.71C554.683 350.86 552.236 351.899 550.339 353.651" stroke="#171717" stroke-width="3.324" stroke-linecap="round" stroke-linejoin="round"/>
<path d="M530.816 358.292C528.717 356.617 526.101 355.724 523.416 355.766C520.731 355.809 518.145 356.784 516.101 358.525" stroke="#171717" stroke-width="3.324" stroke-linecap="round" stroke-linejoin="round"/>
<path d="M484.3 351.733C491.475 352.111 498.671 351.755 505.774 350.669C527.482 347.358 547.775 337.86 564.223 323.312C569.919 318.271 575.056 312.632 579.547 306.492" stroke="#171717" stroke-width="3.324" stroke-linecap="round" stroke-linejoin="round"/>
<path d="M478.428 413.099C484.379 409.092 489.584 404.075 493.807 398.274C503.624 384.867 508.322 367.615 505.84 351.15" stroke="#171717" stroke-width="3.324" stroke-linecap="round" stroke-linejoin="round"/>
<path d="M583.934 382.846C598.649 368.563 609.264 349.646 611.834 329.295C614.404 308.944 608.41 287.256 594.316 272.353C575.745 252.719 545.541 247.179 519.28 253.505C493.019 259.831 470.28 276.419 451.214 295.555C433.098 313.727 416.743 335.089 393.214 345.306C373.014 354.07 350.178 353.395 328.339 356.198C285.968 361.638 244.428 381.998 219.231 416.486C197.469 446.281 189.148 484.109 168.073 514.391C140.106 554.591 89.4582 577.77 40.7602 572.684C40.5602 572.673 40.3602 572.651 40.1602 572.629" stroke="#171717" stroke-width="3.324" stroke-linecap="round" stroke-linejoin="round"/>
<path d="M503.426 428.442C484.933 446.869 456.379 450.658 430.318 449.007C404.257 447.356 378.263 441.328 352.318 444.187C332.986 446.353 314.515 453.37 298.623 464.587C268.529 485.894 250.49 520.221 223.798 545.687C175.056 592.18 100.798 603.814 40.6846 573.41" stroke="#171717" stroke-width="3.324" stroke-linecap="round" stroke-linejoin="round"/>
<path d="M509.962 458.337C472.156 463.578 434.694 473.462 400.777 490.957C366.86 508.452 336.511 533.849 316.323 566.236C300.623 591.41 291.392 620.936 291.237 650.502C291.173 658.986 291.893 667.458 293.387 675.809C300.157 713.371 324.068 748.209 358.295 765.083C372.212 771.942 387.259 775.753 402.638 778.069C413.164 779.653 423.857 780.54 434.449 781.216C467.092 783.321 500.665 783.665 531.634 773.227C532.266 773.016 532.897 772.806 533.518 772.584" stroke="#171717" stroke-width="3.324" stroke-linecap="round" stroke-linejoin="round"/>
<path d="M531.79 773.405C531.736 773.349 531.684 773.29 531.635 773.228C531.258 772.807 530.882 772.386 530.527 771.954C514.837 753.383 511.347 725.273 522.239 703.5" stroke="#171717" stroke-width="3.324" stroke-linecap="round" stroke-linejoin="round"/>
<path d="M564.954 747.92C574.439 745.693 583.924 743.462 593.408 741.227C596.776 740.44 600.699 739.764 603.38 741.947C606.38 744.385 606.039 749.36 603.668 752.407C601.297 755.454 597.518 757.027 593.884 758.346C574.184 765.493 551.613 772.163 530.66 771.846" stroke="#171717" stroke-width="3.324" stroke-linecap="round" stroke-linejoin="round"/>
<path d="M564.954 747.921C560.421 749.184 555.849 750.258 551.237 751.145L564.954 747.921Z" stroke="#171717" stroke-width="3.324" stroke-linecap="round" stroke-linejoin="round"/>
<path d="M562.405 727.011C569.906 724.097 577.411 721.183 584.92 718.269C590.97 715.92 599.092 714.114 602.903 719.369C605.363 722.76 604.465 727.724 601.903 731.037C599.341 734.35 595.465 736.337 591.665 738.095C583.04 742.087 574.106 745.374 564.95 747.923" stroke="#171717" stroke-width="3.324" stroke-linecap="round" stroke-linejoin="round"/>
<path d="M562.405 727.012C558.194 728.896 553.884 730.558 549.505 732.02C553.806 730.359 558.106 728.69 562.405 727.012Z" stroke="#171717" stroke-width="3.324" stroke-linecap="round" stroke-linejoin="round"/>
<path d="M522.029 703.389C522.04 703.367 522.04 703.334 522.051 703.311C524.568 694.83 529.58 687.304 536.433 681.711C538.633 679.905 541.763 678.298 544.189 679.794C546.25 681.068 546.582 683.883 546.571 686.309C546.534 696.028 544.47 705.633 540.51 714.509C553.378 703.383 568.981 695.892 585.71 692.809C590.386 691.956 596.38 692.089 598.43 696.366C600.602 700.898 596.424 705.806 592.48 708.909C583.244 716.169 573.14 722.25 562.4 727.012" stroke="#171717" stroke-width="3.324" stroke-linecap="round" stroke-linejoin="round"/>
<path d="M776.355 151.735C775.602 150.006 774.87 148.278 774.139 146.535C772.754 143.244 771.391 139.835 771.313 136.264C771.235 132.693 772.72 128.851 775.834 127.112C779.568 125.029 784.466 126.58 787.502 129.572C790.538 132.564 792.146 136.686 793.664 140.672C798.85 154.278 804.035 167.892 809.22 181.514C804.644 169.38 800.068 157.247 795.492 145.114C793.992 141.136 792.466 136.948 793.009 132.737C793.552 128.526 796.92 124.327 801.175 124.427C805.884 124.549 808.898 129.38 810.837 133.679C819.76 153.467 825.074 174.691 826.527 196.349" stroke="#171717" stroke-width="3.324" stroke-linecap="round" stroke-linejoin="round"/>
<path d="M776.355 151.734C782.782 162.692 787.845 174.526 792.831 186.234C786.915 174.944 781.423 163.444 776.355 151.734Z" stroke="#171717" stroke-width="3.324" stroke-linecap="round" stroke-linejoin="round"/>
<path d="M781.983 217.7C770.025 215.688 758.395 212.061 747.412 206.919C744.143 205.39 740.487 203.041 740.454 199.429C740.432 196.914 742.371 194.709 744.665 193.678C747.024 192.786 749.553 192.434 752.065 192.648C762.139 192.917 772.075 195.058 781.365 198.964C768.401 182.464 754.994 165.003 751.659 144.283C750.906 139.651 751.482 133.646 755.892 132.073C759.981 130.621 764.025 134.178 766.729 137.573C770.269 142.064 773.487 146.8 776.358 151.745" stroke="#171717" stroke-width="3.324" stroke-linecap="round" stroke-linejoin="round"/>
<path d="M704.543 728.663C701.164 733.283 697.785 737.907 694.405 742.536C690.516 747.855 681.918 756.253 688.344 762.791C694.604 769.184 701.862 762.004 705.807 756.907C710.439 750.945 714.856 744.829 719.059 738.558C727.415 726.124 734.904 713.129 741.474 699.666C743.214 696.087 744.61 691.101 741.452 688.685C739.591 687.267 736.843 687.566 734.837 688.774C732.91 690.115 731.268 691.824 730.006 693.804C721.518 705.428 713.03 717.048 704.543 728.663Z" stroke="#171717" stroke-width="3.324" stroke-linecap="round" stroke-linejoin="round"/>
<path d="M718.349 738.081C717.267 735.506 715.461 733.3 713.15 731.731C710.839 730.161 708.123 729.296 705.33 729.239" stroke="#171717" stroke-width="3.324" stroke-linecap="round" stroke-linejoin="round"/>
<path d="M687.557 749.582C684.857 749.671 682.837 746.745 682.914 744.042C682.991 741.339 684.543 738.942 686.105 736.742C690.292 730.88 695.002 725.41 700.177 720.399" stroke="#171717" stroke-width="3.324" stroke-linecap="round" stroke-linejoin="round"/>
<path d="M637.031 640.054C636.244 637.705 609.718 553.617 609.718 553.617C650.418 558.869 692.388 550.171 728.997 531.623C765.606 513.075 796.952 484.975 821.717 452.255C847.102 418.715 865.961 379.69 872.476 338.139C878.991 296.588 872.587 252.477 851.058 216.339C846.748 209.092 841.396 201.824 833.529 198.755C831.269 197.884 828.889 197.368 826.471 197.226C817.851 196.672 808.842 200.406 800.871 204.45C794.023 207.929 786.954 212.029 782.145 217.824C780.43 219.864 779.036 222.155 778.012 224.616C773.012 236.826 778.865 250.422 782.854 262.998C795.929 304.25 788.04 350.909 764.837 387.43C741.634 423.951 704.051 450.388 662.71 463.175C621.369 475.962 577.651 475.6 535.579 465.5" stroke="#171717" stroke-width="3.324" stroke-linecap="round" stroke-linejoin="round"/>
<path d="M425.464 646.181L457.2 545.361C430.386 546.414 403.848 557.638 385.433 577.15C367.483 596.175 357.788 623.056 360.646 649.028C360.712 649.693 360.801 650.369 360.89 651.034C364.49 677.627 381.843 702.269 406.242 713.427C415.539 717.568 425.494 720.033 435.649 720.707C445.117 721.387 454.632 720.956 464 719.422C483.4 716.364 501.983 709.561 520.421 702.802" stroke="#171717" stroke-width="3.324" stroke-linecap="round" stroke-linejoin="round"/>
<path d="M774.682 639.267L920.166 836.364L73.1113 826.203L234.229 651.777" stroke="#171717" stroke-width="3.324" stroke-linecap="round" stroke-linejoin="round"/>
<path d="M362.772 648.808C383.714 648.442 404.623 648.035 425.498 647.589C496.157 646.104 566.55 644.21 637.087 642.437C682.849 641.285 728.716 640.228 774.687 639.268" stroke="#171717" stroke-width="3.324" stroke-linecap="round" stroke-linejoin="round"/>
<path d="M234.229 651.777C253.453 651.977 271.182 649.76 289.885 650.492" stroke="#171717" stroke-width="3.324" stroke-linecap="round" stroke-linejoin="round"/>
<path d="M388.312 805.083L655.014 802.734L626.859 661.948H468.09" stroke="#171717" stroke-width="3.324" stroke-linecap="round" stroke-linejoin="round"/>
<path d="M402.583 779.455C397.497 787.155 393.065 796.02 388.312 805.084" stroke="#171717" stroke-width="3.324" stroke-linecap="round" stroke-linejoin="round"/>
<path d="M468.09 661.948C461.763 673.028 456.223 684.109 449.575 696.297C444.035 704.053 440.711 712.917 435.702 720.042" stroke="#171717" stroke-width="3.324" stroke-linecap="round" stroke-linejoin="round"/>
<path d="M434.543 619.086C441.396 630.286 456.301 634.248 469.288 632.286C482.275 630.324 493.988 623.667 505.717 617.76C517.446 611.853 530.127 606.48 543.227 607.42C553.495 608.157 563.06 612.72 572.195 617.464C581.33 622.208 590.514 627.289 600.627 629.213C610.74 631.137 622.192 629.347 629.352 621.951" stroke="#171717" stroke-width="3.324" stroke-linecap="round" stroke-linejoin="round"/>
<path d="M438.433 606.621C447.06 617.17 462.871 618.985 476.069 615.593C489.267 612.201 500.952 604.654 513.419 599.153C526.69 593.297 541.652 589.732 555.729 593.234C563.907 595.268 571.313 599.558 578.621 603.754C585.929 607.95 593.4 612.154 601.621 613.992C609.842 615.83 619.074 614.992 625.729 609.817" stroke="#171717" stroke-width="3.324" stroke-linecap="round" stroke-linejoin="round"/>
<path d="M443.029 592.123C453.165 600.244 467.589 600.929 480.191 597.784C492.793 594.639 504.269 588.184 516.21 583.072C528.151 577.96 541.301 574.138 554.039 576.672C561.888 578.237 569.056 582.118 576.014 586.072C582.972 590.026 589.957 594.151 597.673 596.272C605.389 598.393 614.086 598.304 620.918 594.136" stroke="#171717" stroke-width="3.324" stroke-linecap="round" stroke-linejoin="round"/>
<path d="M781.488 257.865C790.781 247.434 802.33 239.259 815.256 233.961C828.183 228.663 842.148 226.381 856.088 227.29" stroke="#171717" stroke-width="3.324" stroke-linecap="round" stroke-linejoin="round"/>
<path d="M786.108 272.222C793.985 259.767 805.655 250.174 819.398 244.857C833.141 239.539 848.23 238.779 862.437 242.689" stroke="#171717" stroke-width="3.324" stroke-linecap="round" stroke-linejoin="round"/>
<path d="M492.97 712.661C490.4 724.054 490.69 735.907 493.813 747.161C496.936 758.415 502.796 768.722 510.87 777.161" stroke="#171717" stroke-width="3.324" stroke-linecap="round" stroke-linejoin="round"/>
<path d="M480.5 716.962C477.777 727.927 477.689 739.382 480.243 750.388C482.797 761.394 487.92 771.639 495.193 780.285" stroke="#171717" stroke-width="3.324" stroke-linecap="round" stroke-linejoin="round"/>
<path d="M621.155 280.3L642.383 259.291" stroke="#171717" stroke-width="3.324" stroke-linecap="round" stroke-linejoin="round"/>
<path d="M641.069 284.344L622.262 257.777" stroke="#171717" stroke-width="3.324" stroke-linecap="round" stroke-linejoin="round"/>
<path d="M423.113 297.627L408.985 285.693" stroke="#171717" stroke-width="3.324" stroke-linecap="round" stroke-linejoin="round"/>
<path d="M408.361 300.384C412.583 294.86 416.804 289.337 421.026 283.813" stroke="#171717" stroke-width="3.324" stroke-linecap="round" stroke-linejoin="round"/>
<path d="M435.951 250.866C434.965 246.266 433.979 241.666 432.992 237.066" stroke="#171717" stroke-width="3.324" stroke-linecap="round" stroke-linejoin="round"/>
<path d="M425.511 246.966L441.725 241.381" stroke="#171717" stroke-width="3.324" stroke-linecap="round" stroke-linejoin="round"/>
<path d="M771.646 531.461C796.706 514.168 818.895 493.046 837.401 468.868" stroke="#171717" stroke-width="3.324" stroke-linecap="round" stroke-linejoin="round"/>
<path d="M190.148 437.622C197.684 412.046 213.282 389.59 234.617 373.6" stroke="#171717" stroke-width="3.324" stroke-linecap="round" stroke-linejoin="round"/>
<path d="M134.9 607.208C158.781 606.84 181.861 598.544 200.509 583.623" stroke="#171717" stroke-width="3.324" stroke-linecap="round" stroke-linejoin="round"/>
<path d="M617.441 207.478C618.729 206.396 619.783 205.064 620.541 203.563C620.913 202.808 621.093 201.974 621.066 201.133C621.04 200.293 620.807 199.472 620.389 198.742C619.02 196.656 616.05 196.372 613.601 196.851C611.361 197.301 609.232 198.194 607.341 199.477C605.45 200.76 603.833 202.407 602.585 204.322C604.034 200.543 604.454 196.16 602.685 192.522C600.916 188.884 596.547 186.377 592.694 187.615C589.094 188.77 586.994 192.733 586.867 196.508C586.74 200.283 588.167 203.921 589.641 207.397C592.301 213.654 593.462 221.803 596.324 220.661C602.592 218.158 612.49 212.066 617.441 207.478Z" fill="url(#paint3_linear_46_7767)"/>
<path d="M542.585 211.02L552.827 209.155C552.959 209.131 553.095 209.148 553.216 209.204C553.338 209.259 553.44 209.351 553.508 209.466C553.576 209.582 553.607 209.715 553.597 209.848C553.587 209.982 553.537 210.109 553.452 210.213L546.883 218.289C546.801 218.389 546.751 218.512 546.739 218.641C546.727 218.77 546.753 218.899 546.815 219.013L551.754 228.177C551.818 228.295 551.844 228.43 551.828 228.563C551.813 228.696 551.758 228.821 551.669 228.922C551.58 229.022 551.463 229.093 551.333 229.125C551.203 229.156 551.066 229.147 550.941 229.099L541.23 225.347C541.109 225.3 540.977 225.291 540.851 225.319C540.725 225.347 540.609 225.412 540.52 225.506L533.33 233.035C533.238 233.132 533.118 233.198 532.986 233.225C532.855 233.252 532.719 233.237 532.596 233.184C532.473 233.131 532.369 233.041 532.299 232.927C532.229 232.814 532.195 232.681 532.202 232.547L532.77 222.147C532.777 222.018 532.745 221.89 532.68 221.778C532.614 221.667 532.517 221.577 532.4 221.521L523.017 217.01C522.897 216.952 522.797 216.858 522.731 216.742C522.665 216.625 522.637 216.491 522.649 216.358C522.662 216.225 522.715 216.099 522.802 215.997C522.888 215.895 523.004 215.821 523.133 215.787L533.195 213.114C533.32 213.081 533.433 213.012 533.518 212.915C533.604 212.818 533.659 212.697 533.676 212.569L535.067 202.252C535.085 202.119 535.143 201.995 535.233 201.896C535.324 201.797 535.443 201.729 535.574 201.699C535.704 201.67 535.841 201.682 535.965 201.733C536.089 201.784 536.194 201.871 536.267 201.984L541.918 210.727C541.988 210.836 542.089 210.922 542.207 210.974C542.326 211.026 542.457 211.042 542.585 211.02Z" fill="#171717"/>
<path d="M319.9 213.111C311.16 178.876 270.337 156.778 236.894 168.18C203.451 179.582 184.628 222.014 198.621 254.459C202.74 264.009 210.712 273.343 221.11 273.53C237.177 273.82 244.49 249.221 233.129 237.857C221.768 226.493 201.335 229.342 189.652 240.375C177.969 251.408 173.429 268.049 171.773 284.033C170.117 300.017 170.808 316.307 167.237 331.974C163.666 347.641 154.746 363.282 139.909 369.452" stroke="#171717" stroke-width="3.324" stroke-linecap="round" stroke-linejoin="round"/>
<path d="M847.814 329.54L840.775 320.154" stroke="#171717" stroke-width="3.324" stroke-linecap="round" stroke-linejoin="round"/>
<path d="M807.925 388.2C810.876 383.741 814.913 380.108 819.657 377.641" stroke="#171717" stroke-width="3.324" stroke-linecap="round" stroke-linejoin="round"/>
<path d="M809.1 344.791L803.234 336.579" stroke="#171717" stroke-width="3.324" stroke-linecap="round" stroke-linejoin="round"/>
<path d="M774.077 474.921L768.171 464.385" stroke="#171717" stroke-width="3.324" stroke-linecap="round" stroke-linejoin="round"/>
<path d="M734.964 445.426L747.656 434.617" stroke="#171717" stroke-width="3.324" stroke-linecap="round" stroke-linejoin="round"/>
<path d="M784.461 429.263L782.115 415.185" stroke="#171717" stroke-width="3.324" stroke-linecap="round" stroke-linejoin="round"/>
<path d="M702.337 521.946L711.723 506.694" stroke="#171717" stroke-width="3.324" stroke-linecap="round" stroke-linejoin="round"/>
<path d="M665.967 493.79L651.889 489.1" stroke="#171717" stroke-width="3.324" stroke-linecap="round" stroke-linejoin="round"/>
<path d="M622.56 538.371L629.599 525.471" stroke="#171717" stroke-width="3.324" stroke-linecap="round" stroke-linejoin="round"/>
<path d="M582.67 501.999C579.186 498.153 574.73 495.317 569.771 493.787" stroke="#171717" stroke-width="3.324" stroke-linecap="round" stroke-linejoin="round"/>
<path d="M565.072 554.799L572.111 544.24" stroke="#171717" stroke-width="3.324" stroke-linecap="round" stroke-linejoin="round"/>
<path d="M495.852 554.8L488.813 546.588" stroke="#171717" stroke-width="3.324" stroke-linecap="round" stroke-linejoin="round"/>
<path d="M466.522 504.348C470.434 499.655 474.344 494.962 478.254 490.27" stroke="#171717" stroke-width="3.324" stroke-linecap="round" stroke-linejoin="round"/>
<path d="M416.134 528.955C415.18 527.161 413.835 525.605 412.198 524.401C410.561 523.197 408.675 522.377 406.679 522" stroke="#171717" stroke-width="3.324" stroke-linecap="round" stroke-linejoin="round"/>
<path d="M347.968 578.225L356.952 562.74" stroke="#171717" stroke-width="3.324" stroke-linecap="round" stroke-linejoin="round"/>
<path d="M342.162 639.267L333.95 631.055" stroke="#171717" stroke-width="3.324" stroke-linecap="round" stroke-linejoin="round"/>
<path d="M306.834 618.057L314.979 606.278" stroke="#171717" stroke-width="3.324" stroke-linecap="round" stroke-linejoin="round"/>
<path d="M338.644 693.234L330.432 706.134" stroke="#171717" stroke-width="3.324" stroke-linecap="round" stroke-linejoin="round"/>
<path d="M365.626 728.431L357.414 719.045" stroke="#171717" stroke-width="3.324" stroke-linecap="round" stroke-linejoin="round"/>
<path d="M424.424 743.82L432.659 735.63" stroke="#171717" stroke-width="3.324" stroke-linecap="round" stroke-linejoin="round"/>
<path d="M402 762.453L393.788 755.414" stroke="#171717" stroke-width="3.324" stroke-linecap="round" stroke-linejoin="round"/>
<path d="M499.07 460.173C500.79 482.336 505.323 505.131 518.436 523.082C521.77 527.647 525.77 531.946 530.92 534.282C536.07 536.618 542.566 536.61 547 533.1C550.489 530.338 552.233 525.828 552.6 521.394C552.967 516.96 552.134 512.523 551.3 508.152C548.767 494.898 546.236 481.645 543.708 468.392" stroke="#171717" stroke-width="3.324" stroke-linecap="round" stroke-linejoin="round"/>
<g opacity="0.1">
<path d="M563.928 322.665C560.29 325.449 557.428 329.065 553.96 332.065C549.997 335.303 545.72 338.136 541.193 340.521C532.493 345.354 523 348.598 513.162 350.101L517.923 351.36L516.46 350.179C512.066 346.633 503.845 348.456 504.235 355.243C504.635 362.201 504.915 369.309 503.423 376.164C502.746 379.483 501.664 382.707 500.203 385.764C498.442 389.317 495.751 392.313 494.82 396.216C493.061 403.59 501.131 410.662 508.041 406.38C516.005 401.443 519.879 389.121 521.318 380.28C522.93 370.38 522.185 360.642 517.58 351.624V358.853L518.688 357.286L515.764 359.534C526.344 357.651 536.434 353.645 545.426 347.759C549.539 344.966 553.367 341.776 556.855 338.234C560.593 334.534 564.909 330.661 567.007 325.744C567.757 323.985 565.962 321.109 563.928 322.665Z" fill="#171717"/>
</g>
<g opacity="0.1">
<path d="M438.474 646.549C447.24 630.698 453.364 612.661 459.374 595.613C465.453 578.358 470.605 560.79 474.808 542.985C476.255 536.857 472 531.663 465.884 531.271C449.466 530.217 430.726 532.988 416.202 541.154C408.97 545.22 401.728 549.268 395.11 554.314C388.802 559.126 383.21 565.451 378.04 571.486C367.265 584.087 359.505 598.978 355.348 615.029C353.313 623.184 352.508 631.597 352.96 639.991C353.157 644.041 353.557 648.08 354.16 652.091C354.755 656.21 354.886 659.843 357.36 663.291C358.541 664.936 361.454 664.977 361.987 662.686C362.887 658.829 362.023 655.753 361.824 651.844C361.664 648.157 361.727 644.464 362.011 640.785C362.695 633.082 364.046 625.453 366.049 617.985C369.577 603.443 376.519 589.952 386.3 578.628C391.235 573.015 397.011 569.103 403.161 565.014C409.123 561.05 415.388 557.526 422.303 555.623C429.235 553.715 436.212 551.058 443.409 550.31C450.873 549.502 458.391 549.325 465.885 549.779L456.961 538.065C452.798 555.525 448.061 572.907 442.661 590.026C437.261 607.145 430.042 623.626 424.508 640.662C421.828 648.911 434.297 654.1 438.473 646.549H438.474Z" fill="#171717"/>
</g>
<g opacity="0.1">
<path d="M293.939 652.045C292.232 656.052 290.87 658.728 290.939 663.211C291.008 667.864 291.105 672.434 291.627 677.063C292.692 686.507 295.804 695.293 299.657 703.947C307.137 720.947 318.337 736.052 332.431 748.147C363.456 774.567 405.394 785.717 445.512 786.295C470.821 786.66 496.147 782.955 520.821 777.568C526.858 776.251 530.383 769.224 528.81 763.499C527.097 757.267 520.795 754.189 514.74 755.51C477.366 763.669 437.834 767.405 400.34 757.871C368.612 749.804 336.94 731.679 318.619 703.796C313.439 695.912 309.803 687.657 306.403 678.91C304.795 674.775 303.271 670.638 301.991 666.388C301.317 664.153 301.108 661.841 300.621 659.566C300.042 656.859 298.599 655.066 297.54 652.518C296.987 651.19 294.691 650.288 293.94 652.047L293.939 652.045Z" fill="#171717"/>
</g>
</g>
</g>
<defs>
<linearGradient id="paint0_linear_46_7767" x1="583.073" y1="197.173" x2="583.073" y2="782.401" gradientUnits="userSpaceOnUse">
<stop stop-color="#FFDD33"/>
<stop offset="1" stop-color="#E89A00"/>
</linearGradient>
<linearGradient id="paint1_linear_46_7767" x1="723.939" y1="687.739" x2="723.939" y2="738.559" gradientUnits="userSpaceOnUse">
<stop stop-color="#FFDD33"/>
<stop offset="1" stop-color="#E89A00"/>
</linearGradient>
<linearGradient id="paint2_linear_46_7767" x1="702.544" y1="728.662" x2="702.544" y2="765.312" gradientUnits="userSpaceOnUse">
<stop stop-color="#FFDD33"/>
<stop offset="1" stop-color="#E89A00"/>
</linearGradient>
<linearGradient id="paint3_linear_46_7767" x1="603.964" y1="187.295" x2="603.964" y2="220.769" gradientUnits="userSpaceOnUse">
<stop stop-color="#FFDD33"/>
<stop offset="1" stop-color="#E89A00"/>
</linearGradient>
<clipPath id="clip0_46_7767">
<rect width="960" height="960" fill="white"/>
</clipPath>
<clipPath id="clip1_46_7767">
<rect width="884" height="717" fill="white" transform="translate(38 122)"/>
</clipPath>
</defs>
</svg>
